<svg width="64" height="64" viewBox="0 0 64 64" fill="none" xmlns="http://www.w3.org/2000/svg">
<rect width="64" height="64" rx="12" fill="#FFE2D1"/>
<path fill-rule="evenodd" clip-rule="evenodd" d="M22.6845 23.6665C22.6845 21.9406 24.0836 20.5415 25.8095 20.5415H38.1905C39.9163 20.5415 41.3155 21.9406 41.3155 23.6665V27.476C41.3155 29.2019 39.9164 30.601 38.1905 30.601H25.8095C24.0836 30.601 22.6845 29.2019 22.6845 27.476V23.6665ZM25.8095 23.4582C25.6944 23.4582 25.6012 23.5514 25.6012 23.6665V27.476C25.6012 27.5911 25.6944 27.6844 25.8095 27.6844H38.1905C38.3055 27.6844 38.3988 27.5911 38.3988 27.476V23.6665C38.3988 23.5514 38.3055 23.4582 38.1905 23.4582H25.8095Z" fill="#F37022"/>
<path fill-rule="evenodd" clip-rule="evenodd" d="M17.6845 19.6191C17.6845 16.9727 19.8298 14.8274 22.4762 14.8274H41.5238C44.1702 14.8274 46.3155 16.9727 46.3155 19.6191V44.381C46.3155 47.0273 44.1702 49.1726 41.5238 49.1726H22.4762C19.8298 49.1726 17.6845 47.0273 17.6845 44.381V19.6191ZM22.4762 17.7441C21.4406 17.7441 20.6012 18.5835 20.6012 19.6191V44.381C20.6012 45.4165 21.4406 46.256 22.4762 46.256H41.5238C42.5593 46.256 43.3988 45.4165 43.3988 44.381V19.6191C43.3988 18.5835 42.5593 17.7441 41.5238 17.7441H22.4762Z" fill="#F37022"/>
<path d="M25.75 37C26.7855 37 27.625 36.1605 27.625 35.125C27.625 34.0895 26.7855 33.25 25.75 33.25C24.7145 33.25 23.875 34.0895 23.875 35.125C23.875 36.1605 24.7145 37 25.75 37Z" fill="#F37022"/>
<path d="M32 37C33.0355 37 33.875 36.1605 33.875 35.125C33.875 34.0895 33.0355 33.25 32 33.25C30.9645 33.25 30.125 34.0895 30.125 35.125C30.125 36.1605 30.9645 37 32 37Z" fill="#F37022"/>
<path d="M38.25 37C39.2855 37 40.125 36.1605 40.125 35.125C40.125 34.0895 39.2855 33.25 38.25 33.25C37.2145 33.25 36.375 34.0895 36.375 35.125C36.375 36.1605 37.2145 37 38.25 37Z" fill="#F37022"/>
<path d="M25.75 43.25C26.7855 43.25 27.625 42.4105 27.625 41.375C27.625 40.3395 26.7855 39.5 25.75 39.5C24.7145 39.5 23.875 40.3395 23.875 41.375C23.875 42.4105 24.7145 43.25 25.75 43.25Z" fill="#F37022"/>
<path d="M32 43.25C33.0355 43.25 33.875 42.4105 33.875 41.375C33.875 40.3395 33.0355 39.5 32 39.5C30.9645 39.5 30.125 40.3395 30.125 41.375C30.125 42.4105 30.9645 43.25 32 43.25Z" fill="#F37022"/>
<path d="M38.25 43.25C39.2855 43.25 40.125 42.4105 40.125 41.375C40.125 40.3395 39.2855 39.5 38.25 39.5C37.2145 39.5 36.375 40.3395 36.375 41.375C36.375 42.4105 37.2145 43.25 38.25 43.25Z" fill="#F37022"/>
</svg>
