<svg width="20" height="20" viewBox="0 0 20 20" fill="none" xmlns="http://www.w3.org/2000/svg">
<g clip-path="url(#clip0_4592_6890)">
<path d="M15.7667 5.00817C15.6 4.5165 15.1333 4.1665 14.5833 4.1665H5.41667C4.86667 4.1665 4.40833 4.5165 4.23333 5.00817L2.5 9.99984V16.6665C2.5 17.1248 2.875 17.4998 3.33333 17.4998H4.16667C4.625 17.4998 5 17.1248 5 16.6665V15.8332H15V16.6665C15 17.1248 15.375 17.4998 15.8333 17.4998H16.6667C17.125 17.4998 17.5 17.1248 17.5 16.6665V9.99984L15.7667 5.00817ZM5.70833 5.83317H14.2833L15.1833 8.42484H4.80833L5.70833 5.83317ZM15.8333 14.1665H4.16667V9.99984H15.8333V14.1665Z" fill="#323232"/>
<path d="M6.25 13.3335C6.94036 13.3335 7.5 12.7739 7.5 12.0835C7.5 11.3931 6.94036 10.8335 6.25 10.8335C5.55964 10.8335 5 11.3931 5 12.0835C5 12.7739 5.55964 13.3335 6.25 13.3335Z" fill="#323232"/>
<path d="M13.75 13.3335C14.4404 13.3335 15 12.7739 15 12.0835C15 11.3931 14.4404 10.8335 13.75 10.8335C13.0596 10.8335 12.5 11.3931 12.5 12.0835C12.5 12.7739 13.0596 13.3335 13.75 13.3335Z" fill="#323232"/>
</g>
<defs>
<clipPath id="clip0_4592_6890">
<rect width="20" height="20" fill="white"/>
</clipPath>
</defs>
</svg>
