<svg width="64" height="64" viewBox="0 0 64 64" fill="none" xmlns="http://www.w3.org/2000/svg">
<rect width="64" height="64" rx="12" fill="#FFE2D1"/>
<path fill-rule="evenodd" clip-rule="evenodd" d="M26.2363 35.812C25.9768 35.056 25.1558 34.6491 24.396 34.9024C23.6319 35.1571 23.219 35.983 23.4737 36.747C23.4737 36.747 23.4735 36.7464 23.4742 36.7487L23.4748 36.7505L23.4761 36.7543L23.4792 36.7633L23.4871 36.7859C23.4931 36.803 23.5009 36.8243 23.5104 36.8494C23.5293 36.8996 23.5554 36.9654 23.5893 37.0445C23.657 37.2025 23.7567 37.415 23.8949 37.6637C24.1704 38.1597 24.6052 38.8106 25.2545 39.4599C26.581 40.7864 28.7308 42.0299 32 42.0299C35.2692 42.0299 37.419 40.7864 38.7455 39.4599C39.3949 38.8106 39.8297 38.1597 40.1052 37.6637C40.2434 37.415 40.343 37.2025 40.4108 37.0445C40.4447 36.9654 40.4707 36.8996 40.4897 36.8494C40.4992 36.8243 40.5069 36.803 40.513 36.7859L40.5209 36.7633L40.5239 36.7543L40.5252 36.7505L40.5258 36.7487C40.5265 36.7468 40.5264 36.747 40.5264 36.747C40.7811 35.983 40.3681 35.1571 39.604 34.9024C38.8442 34.6491 38.0233 35.056 37.7637 35.812C37.7637 35.812 37.7623 35.8157 37.7612 35.8186C37.7565 35.8312 37.7462 35.8575 37.7299 35.8956C37.6972 35.972 37.6406 36.0942 37.5556 36.2473C37.3847 36.5549 37.1052 36.9755 36.6831 37.3975C35.8668 38.2139 34.4451 39.1133 32 39.1133C29.5549 39.1133 28.1333 38.2139 27.3169 37.3975C26.8949 36.9755 26.6154 36.5549 26.4445 36.2473C26.3595 36.0942 26.3029 35.972 26.2701 35.8956C26.2538 35.8575 26.2436 35.8312 26.2388 35.8186C26.2377 35.8156 26.2363 35.812 26.2363 35.812Z" fill="#F37022"/>
<circle cx="32" cy="32" r="15.3929" stroke="#F37022" stroke-width="3.5"/>
<ellipse cx="37.8333" cy="29.1428" rx="2.85714" ry="2.85714" fill="#F37022"/>
<circle cx="26.2857" cy="29.1428" r="2.85714" fill="#F37022"/>
</svg>
