<svg width="64" height="64" viewBox="0 0 64 64" fill="none" xmlns="http://www.w3.org/2000/svg">
<rect width="64" height="64" rx="12" fill="#FFE2D1"/>
<path fill-rule="evenodd" clip-rule="evenodd" d="M25.119 18.1559C25.119 15.5345 27.2368 13.3989 29.8621 13.3989C32.4874 13.3989 34.6051 15.5345 34.6051 18.1559V26.7645L43.5881 27.8884C45.9659 28.1858 47.7425 30.2123 47.7441 32.6057M29.8621 16.3156C28.8592 16.3156 28.0357 17.1337 28.0357 18.1559V35.2329C28.0357 35.774 27.736 36.2707 27.2573 36.523C26.7786 36.7753 26.1995 36.7418 25.7531 36.4359L21.9417 33.8245C21.3785 33.4543 21.0169 33.3981 20.7809 33.4315C20.5525 33.4639 20.1408 33.6229 19.5673 34.3397C19.0356 35.0044 18.9737 35.4696 19.0115 35.7576C19.0516 36.0627 19.2408 36.4469 19.7253 36.8637L26.1205 41.6642C27.3262 42.5693 28.0357 43.9889 28.0356 45.4965L28.0356 45.8096C28.0356 46.8451 28.8751 47.6846 29.9106 47.6846H42.9523C43.9893 47.6846 44.8273 46.8463 44.8273 45.8123L44.8274 32.6088C44.8274 31.6753 44.136 30.8963 43.2261 30.7825L32.9658 29.4988C32.236 29.4075 31.6885 28.7872 31.6885 28.0518V18.1559C31.6885 17.1337 30.8649 16.3156 29.8621 16.3156ZM47.7441 32.6088L47.744 45.8123C47.744 48.4601 45.5972 50.6013 42.9523 50.6013H29.9106C27.2642 50.6013 25.1189 48.4559 25.119 45.8095L25.119 45.4964C25.119 44.9065 24.8414 44.351 24.3696 43.9969L17.9388 39.1696C17.9169 39.1532 17.8954 39.1361 17.8745 39.1185C16.9934 38.376 16.2821 37.3748 16.1197 36.1372C15.9542 34.8765 16.393 33.6387 17.2898 32.5177C18.145 31.4488 19.1619 30.7149 20.3722 30.5436C21.5736 30.3736 22.6584 30.8021 23.5592 31.3974L23.5795 31.411L25.119 32.4659V18.1559" fill="#F37022"/>
</svg>
