<svg width="29" height="22" viewBox="0 0 29 22" fill="none" xmlns="http://www.w3.org/2000/svg">
<path d="M5.49486 1.58505C6.37728 0.43641 7.29365 -0.0703416 8.24395 0.0647946C9.19425 0.199927 9.8391 0.706679 10.1785 1.58505C10.5179 2.46342 10.2464 3.47693 9.36395 4.62556C8.5494 5.63907 7.9385 6.68636 7.53122 7.76743C7.12395 8.8485 6.81849 9.89579 6.61486 10.9093C8.24395 10.9769 9.53365 11.5174 10.484 12.5309C11.5021 13.5444 12.0112 14.8282 12.0112 16.3822C12.0112 18.0038 11.5021 19.3552 10.484 20.4362C9.46577 21.4497 8.14213 21.9565 6.51304 21.9565C4.74819 21.9565 3.35668 21.3822 2.33849 20.2335C1.38819 19.0173 0.91304 17.2944 0.91304 15.0647C0.91304 12.9701 1.21849 10.7404 1.8294 8.37554C2.50819 6.01069 3.73001 3.74719 5.49486 1.58505ZM22.3967 1.58505C23.2791 0.43641 24.1955 -0.0703416 25.1458 0.0647946C26.0961 0.199927 26.7409 0.706679 27.0803 1.58505C27.4197 2.46342 27.1482 3.47693 26.2658 4.62556C25.4512 5.63907 24.8403 6.68636 24.433 7.76743C24.0258 8.8485 23.7203 9.89579 23.5167 10.9093C25.1458 10.9769 26.4355 11.5174 27.3858 12.5309C28.404 13.5444 28.913 14.8282 28.913 16.3822C28.913 18.0038 28.404 19.3552 27.3858 20.4362C26.3676 21.4497 25.044 21.9565 23.4149 21.9565C21.65 21.9565 20.2585 21.3822 19.2403 20.2335C18.29 19.0173 17.8149 17.2944 17.8149 15.0647C17.8149 12.9701 18.1203 10.7404 18.7312 8.37554C19.41 6.01069 20.6318 3.74719 22.3967 1.58505Z" fill="#B7DFFE"/>
</svg>
