<svg width="64" height="64" viewBox="0 0 64 64" fill="none" xmlns="http://www.w3.org/2000/svg">
<rect width="64" height="64" rx="12" fill="#FFE2D1"/>
<path fill-rule="evenodd" clip-rule="evenodd" d="M31.611 18.0885C24.1427 18.0885 18.0884 24.1428 18.0884 31.6111C18.0884 39.0795 24.1427 45.1337 31.611 45.1337C39.0793 45.1337 45.1336 39.0795 45.1336 31.6111C45.1336 24.1428 39.0793 18.0885 31.611 18.0885ZM15.1717 31.6111C15.1717 22.532 22.5318 15.1719 31.611 15.1719C40.6901 15.1719 48.0503 22.532 48.0503 31.6111C48.0503 40.6903 40.6901 48.0504 31.611 48.0504C22.5318 48.0504 15.1717 40.6903 15.1717 31.6111Z" fill="#F87304"/>
<path fill-rule="evenodd" clip-rule="evenodd" d="M40.998 41.7791C41.5668 41.2088 42.4901 41.2076 43.0604 41.7764L48.9337 47.6345C49.504 48.2033 49.5052 49.1266 48.9364 49.6969C48.3677 50.2672 47.4443 50.2684 46.874 49.6996L41.0007 43.8415C40.4304 43.2727 40.4292 42.3493 40.998 41.7791Z" fill="#F87304"/>
</svg>
