<svg width="24" height="24" viewBox="0 0 24 24" fill="none" xmlns="http://www.w3.org/2000/svg">
<path fill-rule="evenodd" clip-rule="evenodd" d="M11.7666 3.65308C7.28559 3.65308 3.65303 7.28564 3.65303 11.7666C3.65303 16.2476 7.28559 19.8802 11.7666 19.8802C16.2476 19.8802 19.8801 16.2476 19.8801 11.7666C19.8801 7.28564 16.2476 3.65308 11.7666 3.65308ZM1.90303 11.7666C1.90303 6.31914 6.3191 1.90308 11.7666 1.90308C17.2141 1.90308 21.6301 6.31914 21.6301 11.7666C21.6301 17.2141 17.2141 21.6302 11.7666 21.6302C6.3191 21.6302 1.90303 17.2141 1.90303 11.7666Z" fill="#CAD0DA"/>
<path fill-rule="evenodd" clip-rule="evenodd" d="M17.3988 17.8672C17.7401 17.525 18.2941 17.5243 18.6362 17.8656L22.1603 21.3805C22.5024 21.7217 22.5031 22.2757 22.1619 22.6179C21.8206 22.96 21.2666 22.9608 20.9244 22.6195L17.4004 19.1046C17.0582 18.7634 17.0575 18.2093 17.3988 17.8672Z" fill="#CAD0DA"/>
</svg>
