<svg width="20" height="20" viewBox="0 0 20 20" fill="none" xmlns="http://www.w3.org/2000/svg">
<g clip-path="url(#clip0_4592_2371)">
<path d="M4.16634 1.66683C4.16634 1.2085 3.79134 0.833496 3.33301 0.833496C2.87467 0.833496 2.49967 1.2085 2.49967 1.66683V5.00016H0.833008V13.3335C0.833008 14.4168 1.53301 15.3335 2.49967 15.6835V19.1668H4.16634V15.6835C5.13301 15.3335 5.83301 14.4168 5.83301 13.3335V5.00016H4.16634V1.66683ZM3.33301 14.1668C2.87467 14.1668 2.49967 13.7918 2.49967 13.3335V11.6668H4.16634V13.3335C4.16634 13.7918 3.79134 14.1668 3.33301 14.1668ZM2.49967 10.0002V6.66683H4.16634V10.0002H2.49967ZM10.833 1.66683C10.833 1.2085 10.458 0.833496 9.99967 0.833496C9.54134 0.833496 9.16634 1.2085 9.16634 1.66683V5.00016H7.49967V13.3335C7.49967 14.4168 8.19967 15.3335 9.16634 15.6835V19.1668H10.833V15.6835C11.7997 15.3335 12.4997 14.4168 12.4997 13.3335V5.00016H10.833V1.66683ZM9.99967 14.1668C9.54134 14.1668 9.16634 13.7918 9.16634 13.3335V11.6668H10.833V13.3335C10.833 13.7918 10.458 14.1668 9.99967 14.1668ZM9.16634 10.0002V6.66683H10.833V10.0002H9.16634ZM17.4997 5.00016V1.66683C17.4997 1.2085 17.1247 0.833496 16.6663 0.833496C16.208 0.833496 15.833 1.2085 15.833 1.66683V5.00016H14.1663V13.3335C14.1663 14.4168 14.8663 15.3335 15.833 15.6835V19.1668H17.4997V15.6835C18.4663 15.3335 19.1663 14.4168 19.1663 13.3335V5.00016H17.4997ZM16.6663 14.1668C16.208 14.1668 15.833 13.7918 15.833 13.3335V11.6668H17.4997V13.3335C17.4997 13.7918 17.1247 14.1668 16.6663 14.1668ZM15.833 10.0002V6.66683H17.4997V10.0002H15.833Z" fill="#323232"/>
</g>
<defs>
<clipPath id="clip0_4592_2371">
<rect width="20" height="20" fill="white"/>
</clipPath>
</defs>
</svg>
