<svg width="20" height="20" viewBox="0 0 20 20" fill="none" xmlns="http://www.w3.org/2000/svg">
<path fill-rule="evenodd" clip-rule="evenodd" d="M7.50033 4.58341C6.72678 4.58341 5.98491 4.89071 5.43793 5.43769C4.89095 5.98467 4.58366 6.72653 4.58366 7.50008V16.6667H15.417V7.50008C15.417 6.72653 15.1097 5.98467 14.5627 5.43769C14.0157 4.89071 13.2739 4.58341 12.5003 4.58341H7.50033ZM7.50033 2.91675C6.28475 2.91675 5.11896 3.39963 4.25942 4.25918C3.39988 5.11872 2.91699 6.28451 2.91699 7.50008V16.8751C2.91699 17.2619 3.07064 17.6328 3.34413 17.9063C3.61762 18.1798 3.98855 18.3334 4.37533 18.3334H15.6253C16.0121 18.3334 16.383 18.1798 16.6565 17.9063C16.93 17.6328 17.0837 17.2619 17.0837 16.8751V7.50008C17.0837 6.28451 16.6008 5.11872 15.7412 4.25918C14.8817 3.39963 13.7159 2.91675 12.5003 2.91675H7.50033Z" fill="#98A2B3"/>
<path fill-rule="evenodd" clip-rule="evenodd" d="M7.50033 11.4584C7.38982 11.4584 7.28384 11.5023 7.2057 11.5805C7.12756 11.6586 7.08366 11.7646 7.08366 11.8751V17.5001C7.08366 17.9603 6.71056 18.3334 6.25033 18.3334C5.79009 18.3334 5.41699 17.9603 5.41699 17.5001V11.8751C5.41699 11.3225 5.63649 10.7926 6.02719 10.4019C6.41789 10.0112 6.94779 9.79175 7.50033 9.79175H12.5003C13.0529 9.79175 13.5828 10.0112 13.9735 10.4019C14.3642 10.7926 14.5837 11.3225 14.5837 11.8751V17.5001C14.5837 17.9603 14.2106 18.3334 13.7503 18.3334C13.2901 18.3334 12.917 17.9603 12.917 17.5001V11.8751C12.917 11.7646 12.8731 11.6586 12.795 11.5805C12.7168 11.5023 12.6108 11.4584 12.5003 11.4584H7.50033Z" fill="#98A2B3"/>
<path fill-rule="evenodd" clip-rule="evenodd" d="M8.75033 2.08341C8.63982 2.08341 8.53384 2.12731 8.4557 2.20545C8.37756 2.28359 8.33366 2.38958 8.33366 2.50008V3.75008C8.33366 4.21032 7.96056 4.58342 7.50033 4.58342C7.04009 4.58342 6.66699 4.21032 6.66699 3.75008V2.50008C6.66699 1.94755 6.88649 1.41764 7.27719 1.02694C7.66789 0.636241 8.19779 0.416748 8.75033 0.416748H11.2503C11.8029 0.416748 12.3328 0.636241 12.7235 1.02694C13.1142 1.41764 13.3337 1.94755 13.3337 2.50008V3.75008C13.3337 4.21032 12.9606 4.58342 12.5003 4.58342C12.0401 4.58342 11.667 4.21032 11.667 3.75008V2.50008C11.667 2.38958 11.6231 2.28359 11.545 2.20545C11.4668 2.12731 11.3608 2.08341 11.2503 2.08341H8.75033Z" fill="#98A2B3"/>
<path fill-rule="evenodd" clip-rule="evenodd" d="M7.91699 6.87508C7.91699 6.41484 8.29009 6.04175 8.75033 6.04175H11.2503C11.7106 6.04175 12.0837 6.41484 12.0837 6.87508C12.0837 7.33532 11.7106 7.70841 11.2503 7.70841H8.75033C8.29009 7.70841 7.91699 7.33532 7.91699 6.87508Z" fill="#98A2B3"/>
<path fill-rule="evenodd" clip-rule="evenodd" d="M5.41699 13.1251C5.41699 12.6648 5.79009 12.2917 6.25033 12.2917H13.7503C14.2106 12.2917 14.5837 12.6648 14.5837 13.1251C14.5837 13.5853 14.2106 13.9584 13.7503 13.9584H6.25033C5.79009 13.9584 5.41699 13.5853 5.41699 13.1251Z" fill="#98A2B3"/>
<path fill-rule="evenodd" clip-rule="evenodd" d="M11.2503 12.2917C11.7106 12.2917 12.0837 12.6648 12.0837 13.1251V14.3751C12.0837 14.8353 11.7106 15.2084 11.2503 15.2084C10.7901 15.2084 10.417 14.8353 10.417 14.3751V13.1251C10.417 12.6648 10.7901 12.2917 11.2503 12.2917Z" fill="#98A2B3"/>
</svg>
