<svg width="20" height="20" viewBox="0 0 20 20" fill="none" xmlns="http://www.w3.org/2000/svg">
<path fill-rule="evenodd" clip-rule="evenodd" d="M4.16667 9.16675H15.8333C15.8333 12.3884 13.2217 15.0001 10 15.0001C6.77834 15.0001 4.16667 12.3884 4.16667 9.16675ZM17.5 9.16675V9.02786C17.5 8.18409 16.816 7.50008 15.9722 7.50008H4.02778C3.18401 7.50008 2.5 8.18409 2.5 9.02786V9.16675C2.5 13.3089 5.85786 16.6667 10 16.6667C14.1421 16.6667 17.5 13.3089 17.5 9.16675Z" fill="#101828"/>
<path fill-rule="evenodd" clip-rule="evenodd" d="M15.0003 13.3333C15.4606 13.3333 15.8337 13.7063 15.8337 14.1666V15.8333C15.8337 16.2935 15.4606 16.6666 15.0003 16.6666C14.5401 16.6666 14.167 16.2935 14.167 15.8333V14.1666C14.167 13.7063 14.5401 13.3333 15.0003 13.3333Z" fill="#101828"/>
<path fill-rule="evenodd" clip-rule="evenodd" d="M5.00033 13.3333C5.46056 13.3333 5.83366 13.7063 5.83366 14.1666V15.8333C5.83366 16.2935 5.46056 16.6666 5.00033 16.6666C4.54009 16.6666 4.16699 16.2935 4.16699 15.8333V14.1666C4.16699 13.7063 4.54009 13.3333 5.00033 13.3333Z" fill="#101828"/>
<path fill-rule="evenodd" clip-rule="evenodd" d="M14.167 4.16667C13.7068 4.16667 13.3337 4.53976 13.3337 5V5.24306C13.3337 5.70329 12.9606 6.07639 12.5003 6.07639C12.0401 6.07639 11.667 5.70329 11.667 5.24306V5C11.667 3.61929 12.7863 2.5 14.167 2.5C15.5477 2.5 16.667 3.61929 16.667 5V7.5C16.667 7.96024 16.2939 8.33333 15.8337 8.33333C15.3734 8.33333 15.0003 7.96024 15.0003 7.5V5C15.0003 4.53976 14.6272 4.16667 14.167 4.16667Z" fill="#101828"/>
</svg>
