<svg width="20" height="20" viewBox="0 0 20 20" fill="none" xmlns="http://www.w3.org/2000/svg">
<path fill-rule="evenodd" clip-rule="evenodd" d="M5.13487 9.16675H14.8658C15.3051 9.16673 15.684 9.16672 15.9962 9.19222C16.3256 9.21914 16.6533 9.27857 16.9686 9.43923C17.439 9.67892 17.8215 10.0614 18.0612 10.5318C18.2218 10.8471 18.2813 11.1748 18.3082 11.5042C18.3337 11.8164 18.3337 12.1953 18.3337 12.6346V16.6667C18.3337 17.127 17.9606 17.5001 17.5003 17.5001C17.0401 17.5001 16.667 17.127 16.667 16.6667V12.6667C16.667 12.1863 16.6663 11.8761 16.6471 11.6399C16.6286 11.4136 16.5972 11.3296 16.5762 11.2884C16.4963 11.1316 16.3688 11.0041 16.212 10.9242C16.1708 10.9033 16.0868 10.8719 15.8605 10.8534C15.6243 10.8341 15.3141 10.8334 14.8337 10.8334H5.16699C4.68653 10.8334 4.3763 10.8341 4.14019 10.8534C3.9138 10.8719 3.82987 10.9033 3.78867 10.9242C3.63187 11.0041 3.50438 11.1316 3.42449 11.2884C3.40349 11.3296 3.3721 11.4136 3.3536 11.6399C3.33431 11.8761 3.33366 12.1863 3.33366 12.6667V16.6667C3.33366 17.127 2.96056 17.5001 2.50033 17.5001C2.04009 17.5001 1.66699 17.127 1.66699 16.6667L1.66699 12.6346C1.66698 12.1953 1.66697 11.8164 1.69247 11.5042C1.71939 11.1748 1.77882 10.8471 1.93948 10.5318C2.17916 10.0614 2.56161 9.67892 3.03202 9.43923C3.34733 9.27857 3.67502 9.21914 4.00447 9.19222C4.31661 9.16672 4.69558 9.16673 5.13487 9.16675Z" fill="#101828"/>
<path fill-rule="evenodd" clip-rule="evenodd" d="M17.5 15.8334H2.5V14.1667H17.5V15.8334Z" fill="#101828"/>
<path fill-rule="evenodd" clip-rule="evenodd" d="M5.96788 2.5H14.0321C14.4714 2.49999 14.8504 2.49997 15.1625 2.52548C15.492 2.55239 15.8197 2.61182 16.135 2.77249C16.6054 3.01217 16.9878 3.39462 17.2275 3.86503C17.3882 4.18034 17.4476 4.50802 17.4745 4.83748C17.5 5.14962 17.5 5.52858 17.5 5.96786V6.66667C17.5 7.12691 17.1269 7.5 16.6667 7.5C16.2064 7.5 15.8333 7.12691 15.8333 6.66667V6C15.8333 5.51954 15.8327 5.20931 15.8134 4.9732C15.7949 4.74681 15.7635 4.66288 15.7425 4.62168C15.6626 4.46487 15.5351 4.33739 15.3783 4.2575C15.3371 4.2365 15.2532 4.2051 15.0268 4.18661C14.7907 4.16732 14.4805 4.16667 14 4.16667H6C5.51954 4.16667 5.20931 4.16732 4.9732 4.18661C4.74681 4.2051 4.66288 4.2365 4.62168 4.2575C4.46487 4.33739 4.33739 4.46487 4.2575 4.62168C4.2365 4.66288 4.2051 4.74681 4.18661 4.9732C4.16732 5.20931 4.16667 5.51954 4.16667 6V6.66667C4.16667 7.12691 3.79357 7.5 3.33333 7.5C2.8731 7.5 2.5 7.12691 2.5 6.66667L2.5 5.96788C2.49999 5.52859 2.49997 5.14962 2.52548 4.83748C2.55239 4.50802 2.61182 4.18034 2.77249 3.86503C3.01217 3.39462 3.39462 3.01217 3.86503 2.77249C4.18034 2.61182 4.50802 2.55239 4.83748 2.52548C5.14962 2.49997 5.52859 2.49999 5.96788 2.5Z" fill="#101828"/>
<path d="M7.5 5.83325H6.66667C5.74619 5.83325 5 6.57944 5 7.49992H9.16667C9.16667 6.57944 8.42047 5.83325 7.5 5.83325Z" fill="#101828"/>
<path d="M13.334 5.83325H12.5007C11.5802 5.83325 10.834 6.57944 10.834 7.49992H15.0007C15.0007 6.57944 14.2545 5.83325 13.334 5.83325Z" fill="#101828"/>
</svg>
