<svg width="24" height="24" viewBox="0 0 24 24" fill="none" xmlns="http://www.w3.org/2000/svg">
<path d="M23.7295 15.1388L21.2308 12.8986V9.93089C21.2279 7.88002 20.3769 5.90296 18.8424 4.38199C17.3079 2.86102 15.1989 1.90419 12.9231 1.69653V0H11.0769V1.69653C8.80114 1.90419 6.69209 2.86102 5.15757 4.38199C3.62306 5.90296 2.77209 7.88002 2.76923 9.93089V12.8986L0.270462 15.1388C0.097339 15.294 5.22807e-05 15.5044 0 15.7239V18.2066C0 18.4261 0.0972524 18.6366 0.270363 18.7918C0.443473 18.947 0.678262 19.0342 0.923077 19.0342H7.38462V19.6772C7.36454 20.7271 7.7773 21.7467 8.5438 22.5407C9.3103 23.3346 10.3766 23.847 11.5385 23.9798C12.1802 24.0368 12.8281 23.9728 13.4405 23.7919C14.053 23.611 14.6164 23.3171 15.0946 22.9293C15.5728 22.5414 15.9552 22.0681 16.2171 21.5398C16.479 21.0115 16.6147 20.4399 16.6154 19.8618V19.0342H23.0769C23.3217 19.0342 23.5565 18.947 23.7296 18.7918C23.9027 18.6366 24 18.4261 24 18.2066V15.7239C23.9999 15.5044 23.9027 15.294 23.7295 15.1388ZM14.7692 19.8618C14.7692 20.5202 14.4775 21.1517 13.9581 21.6173C13.4388 22.0829 12.7344 22.3445 12 22.3445C11.2656 22.3445 10.5612 22.0829 10.0419 21.6173C9.52253 21.1517 9.23077 20.5202 9.23077 19.8618V19.0342H14.7692V19.8618ZM22.1538 17.379H1.84615V16.0665L4.34492 13.8263C4.51805 13.6711 4.61533 13.4606 4.61538 13.2412V9.93089C4.61538 8.175 5.3934 6.49102 6.77829 5.24942C8.16317 4.00782 10.0415 3.3103 12 3.3103C13.9585 3.3103 15.8368 4.00782 17.2217 5.24942C18.6066 6.49102 19.3846 8.175 19.3846 9.93089V13.2412C19.3847 13.4606 19.482 13.6711 19.6551 13.8263L22.1538 16.0665V17.379Z" fill="#0F2D4B"/>
</svg>
