<svg width="20" height="20" viewBox="0 0 20 20" fill="none" xmlns="http://www.w3.org/2000/svg">
<path fill-rule="evenodd" clip-rule="evenodd" d="M3.26953 5.43221C3.26953 4.97197 3.59888 4.59888 4.00516 4.59888H15.8672C16.2735 4.59888 16.6029 4.97197 16.6029 5.43221C16.6029 5.89245 16.2735 6.26554 15.8672 6.26554H4.00516C3.59888 6.26554 3.26953 5.89245 3.26953 5.43221Z" fill="#98A2B3"/>
<path fill-rule="evenodd" clip-rule="evenodd" d="M3.26953 9.59871C3.26953 9.13848 3.59888 8.76538 4.00516 8.76538H15.8672C16.2735 8.76538 16.6029 9.13848 16.6029 9.59871C16.6029 10.059 16.2735 10.432 15.8672 10.432H4.00516C3.59888 10.432 3.26953 10.059 3.26953 9.59871Z" fill="#98A2B3"/>
<path fill-rule="evenodd" clip-rule="evenodd" d="M4.94824 3.76554C4.48801 3.76554 4.11491 4.13864 4.11491 4.59888V16.6667H5.57324V15.0001C5.57324 14.5398 5.94634 14.1667 6.40658 14.1667H13.5837C14.0439 14.1667 14.417 14.5398 14.417 15.0001V16.6667H15.7698V4.59888C15.7698 4.13864 15.3967 3.76554 14.9364 3.76554H4.94824ZM2.44824 4.59888C2.44824 3.21817 3.56753 2.09888 4.94824 2.09888H14.9364C16.3172 2.09888 17.4364 3.21817 17.4364 4.59888V16.6667C17.4364 17.5872 16.6903 18.3334 15.7698 18.3334H14.417C13.4965 18.3334 12.7503 17.5872 12.7503 16.6667V15.8334H7.23991V16.8751C7.23991 17.2619 7.08626 17.6328 6.81277 17.9063C6.53928 18.1798 6.16835 18.3334 5.78158 18.3334H3.90658C3.5198 18.3334 3.14887 18.1798 2.87538 17.9063C2.60189 17.6328 2.44824 17.2619 2.44824 16.8751V4.59888Z" fill="#98A2B3"/>
<path d="M6.5625 13.125C7.08027 13.125 7.5 12.7053 7.5 12.1875C7.5 11.6697 7.08027 11.25 6.5625 11.25C6.04473 11.25 5.625 11.6697 5.625 12.1875C5.625 12.7053 6.04473 13.125 6.5625 13.125Z" fill="#98A2B3"/>
<path d="M13.4375 13.125C13.9553 13.125 14.375 12.7053 14.375 12.1875C14.375 11.6697 13.9553 11.25 13.4375 11.25C12.9197 11.25 12.5 11.6697 12.5 12.1875C12.5 12.7053 12.9197 13.125 13.4375 13.125Z" fill="#98A2B3"/>
</svg>
