<svg width="20" height="20" viewBox="0 0 20 20" fill="none" xmlns="http://www.w3.org/2000/svg">
<path fill-rule="evenodd" clip-rule="evenodd" d="M9.62924 10.14C10.0122 10.3953 10.1157 10.9127 9.86037 11.2957L6.52703 16.2957C6.37248 16.5275 6.11229 16.6668 5.83366 16.6668H2.50033C2.04009 16.6668 1.66699 16.2937 1.66699 15.8334C1.66699 15.3732 2.04009 15.0001 2.50033 15.0001H5.38767L8.47362 10.3712C8.72891 9.98823 9.2463 9.88475 9.62924 10.14Z" fill="#98A2B3"/>
<path fill-rule="evenodd" clip-rule="evenodd" d="M2.15515 2.1549C2.46771 1.84234 2.89163 1.66675 3.33366 1.66675H15.8337C16.1015 1.66675 16.3531 1.79552 16.5097 2.01282C16.6663 2.23013 16.7089 2.50948 16.6242 2.7636L16.1565 4.16675H16.667C17.109 4.16675 17.5329 4.34234 17.8455 4.6549C18.1581 4.96747 18.3337 5.39139 18.3337 5.83342V7.50008C18.3337 7.94211 18.1581 8.36603 17.8455 8.67859C17.5329 8.99115 17.109 9.16675 16.667 9.16675H15.0003V10.0001C15.0003 10.4421 14.8247 10.866 14.5122 11.1786C14.1996 11.4912 13.7757 11.6667 13.3337 11.6667H5.00033C4.5583 11.6667 4.13437 11.4912 3.82181 11.1786C3.50925 10.866 3.33366 10.4421 3.33366 10.0001V8.33342C2.89163 8.33342 2.46771 8.15782 2.15515 7.84526C1.84259 7.5327 1.66699 7.10878 1.66699 6.66675V3.33341C1.66699 2.89139 1.84259 2.46746 2.15515 2.1549ZM5.00033 8.33342V10.0001H13.3337V8.33342H5.00033ZM15.601 5.83342L15.0454 7.50008H16.667V5.83342H15.601ZM14.6775 3.33341H3.33366V6.66675H13.5664L14.6775 3.33341ZM2.50033 13.3334C2.96056 13.3334 3.33366 13.7065 3.33366 14.1667V17.5001C3.33366 17.9603 2.96056 18.3334 2.50033 18.3334C2.04009 18.3334 1.66699 17.9603 1.66699 17.5001V14.1667C1.66699 13.7065 2.04009 13.3334 2.50033 13.3334Z" fill="#98A2B3"/>
</svg>
