<svg width="24" height="24" viewBox="0 0 24 24" fill="none" xmlns="http://www.w3.org/2000/svg">
<path fill-rule="evenodd" clip-rule="evenodd" d="M12 4C7.44039 4 4 7.2379 4 11C4 14.7621 7.44039 18 12 18H12.0014C12.9318 18.0013 13.8565 17.8558 14.7415 17.5688C14.9914 17.4877 15.2631 17.5083 15.4979 17.6259L18.5032 19.1316L17.8397 16.4721C17.7548 16.1316 17.8545 15.7716 18.1024 15.5234C19.3034 14.3208 19.9847 12.6951 20 10.9957C19.9974 7.23546 16.5579 4 12 4ZM2 11C2 5.9221 6.55961 2 12 2C17.4404 2 22 5.9221 22 11V11.0084H22C21.983 13.0402 21.2381 14.9918 19.9116 16.5143L20.9703 20.7579C21.0648 21.1369 20.9301 21.5362 20.6252 21.7804C20.3204 22.0247 19.9013 22.069 19.5521 21.8941L14.9583 19.5925C13.9964 19.864 13.0008 20.0013 12 20M2 11C2 16.0777 6.5592 19.9997 11.9993 20L2 11Z" fill="#00529C"/>
<path d="M9 11C9 11.5523 8.55228 12 8 12C7.44772 12 7 11.5523 7 11C7 10.4477 7.44772 10 8 10C8.55228 10 9 10.4477 9 11Z" fill="#00529C"/>
<path d="M13 11C13 11.5523 12.5523 12 12 12C11.4477 12 11 11.5523 11 11C11 10.4477 11.4477 10 12 10C12.5523 10 13 10.4477 13 11Z" fill="#00529C"/>
<path d="M17 11C17 11.5523 16.5523 12 16 12C15.4477 12 15 11.5523 15 11C15 10.4477 15.4477 10 16 10C16.5523 10 17 10.4477 17 11Z" fill="#00529C"/>
</svg>
