<svg width="20" height="20" viewBox="0 0 20 20" fill="none" xmlns="http://www.w3.org/2000/svg">
<path fill-rule="evenodd" clip-rule="evenodd" d="M6.25033 11.4584C5.32985 11.4584 4.58366 12.2046 4.58366 13.1251C4.58366 14.0456 5.32985 14.7917 6.25033 14.7917C7.1708 14.7917 7.91699 14.0456 7.91699 13.1251C7.91699 12.2046 7.1708 11.4584 6.25033 11.4584ZM2.91699 13.1251C2.91699 11.2841 4.40938 9.79175 6.25033 9.79175C8.09127 9.79175 9.58366 11.2841 9.58366 13.1251C9.58366 14.966 8.09127 16.4584 6.25033 16.4584C4.40938 16.4584 2.91699 14.966 2.91699 13.1251Z" fill="#98A2B3"/>
<path fill-rule="evenodd" clip-rule="evenodd" d="M6.25037 16.4584C5.65203 16.4584 5.06191 16.5977 4.52674 16.8653C3.99157 17.1329 3.52605 17.5214 3.16704 18.0001C2.8909 18.3683 2.36856 18.4429 2.00037 18.1667C1.63218 17.8906 1.55757 17.3683 1.83371 17.0001C2.34796 16.3144 3.01478 15.7579 3.78138 15.3746C4.54798 14.9913 5.39329 14.7917 6.25037 14.7917C7.10746 14.7917 7.95277 14.9913 8.71937 15.3746C9.48596 15.7579 10.1528 16.3144 10.667 17.0001C10.9432 17.3683 10.8686 17.8906 10.5004 18.1667C10.1322 18.4429 9.60985 18.3683 9.33371 18.0001C8.9747 17.5214 8.50918 17.1329 7.97401 16.8653C7.43884 16.5977 6.84872 16.4584 6.25037 16.4584Z" fill="#98A2B3"/>
<path fill-rule="evenodd" clip-rule="evenodd" d="M6.25033 3.33341C5.32985 3.33341 4.58366 4.07961 4.58366 5.00008C4.58366 5.92056 5.32985 6.66675 6.25033 6.66675C7.1708 6.66675 7.91699 5.92056 7.91699 5.00008C7.91699 4.07961 7.1708 3.33341 6.25033 3.33341ZM2.91699 5.00008C2.91699 3.15913 4.40938 1.66675 6.25033 1.66675C8.09127 1.66675 9.58366 3.15913 9.58366 5.00008C9.58366 6.84103 8.09127 8.33341 6.25033 8.33341C4.40938 8.33341 2.91699 6.84103 2.91699 5.00008Z" fill="#98A2B3"/>
<path fill-rule="evenodd" clip-rule="evenodd" d="M6.25037 8.33341C5.65203 8.33341 5.06191 8.47272 4.52674 8.74031C3.99157 9.0079 3.52605 9.39641 3.16704 9.87508C2.8909 10.2433 2.36856 10.3179 2.00037 10.0417C1.63218 9.76561 1.55757 9.24327 1.83371 8.87508C2.34796 8.18942 3.01478 7.6329 3.78138 7.2496C4.54798 6.8663 5.39329 6.66675 6.25037 6.66675C7.10746 6.66675 7.95277 6.8663 8.71937 7.2496C9.48596 7.6329 10.1528 8.18942 10.667 8.87508C10.9432 9.24327 10.8686 9.76561 10.5004 10.0417C10.1322 10.3179 9.60985 10.2433 9.33371 9.87508C8.9747 9.39641 8.50918 9.0079 7.97401 8.74031C7.43884 8.47272 6.84872 8.33341 6.25037 8.33341Z" fill="#98A2B3"/>
<path fill-rule="evenodd" clip-rule="evenodd" d="M13.7503 11.4584C12.8299 11.4584 12.0837 12.2046 12.0837 13.1251C12.0837 14.0456 12.8299 14.7917 13.7503 14.7917C14.6708 14.7917 15.417 14.0456 15.417 13.1251C15.417 12.2046 14.6708 11.4584 13.7503 11.4584ZM10.417 13.1251C10.417 11.2841 11.9094 9.79175 13.7503 9.79175C15.5913 9.79175 17.0837 11.2841 17.0837 13.1251C17.0837 14.966 15.5913 16.4584 13.7503 16.4584C11.9094 16.4584 10.417 14.966 10.417 13.1251Z" fill="#98A2B3"/>
<path fill-rule="evenodd" clip-rule="evenodd" d="M13.7504 16.4584C13.152 16.4584 12.5619 16.5977 12.0267 16.8653C11.4916 17.1329 11.026 17.5214 10.667 18.0001C10.3909 18.3683 9.86856 18.4429 9.50037 18.1667C9.13218 17.8906 9.05757 17.3683 9.33371 17.0001C9.84796 16.3144 10.5148 15.7579 11.2814 15.3746C12.048 14.9913 12.8933 14.7917 13.7504 14.7917C14.6075 14.7917 15.4528 14.9913 16.2194 15.3746C16.986 15.7579 17.6528 16.3144 18.167 17.0001C18.4432 17.3683 18.3686 17.8906 18.0004 18.1667C17.6322 18.4429 17.1099 18.3683 16.8337 18.0001C16.4747 17.5214 16.0092 17.1329 15.474 16.8653C14.9388 16.5977 14.3487 16.4584 13.7504 16.4584Z" fill="#98A2B3"/>
<path fill-rule="evenodd" clip-rule="evenodd" d="M13.7503 3.33341C12.8299 3.33341 12.0837 4.07961 12.0837 5.00008C12.0837 5.92056 12.8299 6.66675 13.7503 6.66675C14.6708 6.66675 15.417 5.92056 15.417 5.00008C15.417 4.07961 14.6708 3.33341 13.7503 3.33341ZM10.417 5.00008C10.417 3.15913 11.9094 1.66675 13.7503 1.66675C15.5913 1.66675 17.0837 3.15913 17.0837 5.00008C17.0837 6.84103 15.5913 8.33341 13.7503 8.33341C11.9094 8.33341 10.417 6.84103 10.417 5.00008Z" fill="#98A2B3"/>
<path fill-rule="evenodd" clip-rule="evenodd" d="M13.7504 8.33341C13.152 8.33341 12.5619 8.47272 12.0267 8.74031C11.4916 9.0079 11.026 9.39641 10.667 9.87508C10.3909 10.2433 9.86856 10.3179 9.50037 10.0417C9.13218 9.76561 9.05757 9.24327 9.33371 8.87508C9.84796 8.18942 10.5148 7.6329 11.2814 7.2496C12.048 6.8663 12.8933 6.66675 13.7504 6.66675C14.6075 6.66675 15.4528 6.8663 16.2194 7.2496C16.986 7.6329 17.6528 8.18942 18.167 8.87508C18.4432 9.24327 18.3686 9.76561 18.0004 10.0417C17.6322 10.3179 17.1099 10.2433 16.8337 9.87508C16.4747 9.39641 16.0092 9.0079 15.474 8.74031C14.9388 8.47272 14.3487 8.33341 13.7504 8.33341Z" fill="#98A2B3"/>
</svg>
