<svg width="20" height="20" viewBox="0 0 20 20" fill="none" xmlns="http://www.w3.org/2000/svg">
<path fill-rule="evenodd" clip-rule="evenodd" d="M6.66634 2.5C7.12658 2.5 7.49967 2.8731 7.49967 3.33333V5.83333C7.49967 6.29357 7.12658 6.66667 6.66634 6.66667C6.2061 6.66667 5.83301 6.29357 5.83301 5.83333V3.33333C5.83301 2.8731 6.2061 2.5 6.66634 2.5Z" fill="#98A2B3"/>
<path fill-rule="evenodd" clip-rule="evenodd" d="M10.0003 2.5C10.4606 2.5 10.8337 2.8731 10.8337 3.33333V5.83333C10.8337 6.29357 10.4606 6.66667 10.0003 6.66667C9.54009 6.66667 9.16699 6.29357 9.16699 5.83333V3.33333C9.16699 2.8731 9.54009 2.5 10.0003 2.5Z" fill="#98A2B3"/>
<path fill-rule="evenodd" clip-rule="evenodd" d="M13.3333 2.5C13.7936 2.5 14.1667 2.8731 14.1667 3.33333V5.83333C14.1667 6.29357 13.7936 6.66667 13.3333 6.66667C12.8731 6.66667 12.5 6.29357 12.5 5.83333V3.33333C12.5 2.8731 12.8731 2.5 13.3333 2.5Z" fill="#98A2B3"/>
<path fill-rule="evenodd" clip-rule="evenodd" d="M3.33301 8.33333C3.33301 7.8731 3.7061 7.5 4.16634 7.5H15.833C16.2932 7.5 16.6663 7.8731 16.6663 8.33333V15C16.6663 16.3807 15.5471 17.5 14.1663 17.5H5.83301C4.4523 17.5 3.33301 16.3807 3.33301 15V8.33333ZM4.99967 9.16667V15C4.99967 15.4602 5.37277 15.8333 5.83301 15.8333H14.1663C14.6266 15.8333 14.9997 15.4602 14.9997 15V9.16667H4.99967Z" fill="#98A2B3"/>
<path fill-rule="evenodd" clip-rule="evenodd" d="M19.0268 7.87117C19.2821 8.25411 19.1786 8.7715 18.7957 9.0268L16.2957 10.6935C15.9127 10.9488 15.3953 10.8453 15.14 10.4623C14.8848 10.0794 14.9882 9.56201 15.3712 9.30671L17.8712 7.64005C18.2541 7.38475 18.7715 7.48823 19.0268 7.87117Z" fill="#98A2B3"/>
<path fill-rule="evenodd" clip-rule="evenodd" d="M0.973054 7.87117C1.22835 7.48823 1.74574 7.38475 2.12868 7.64005L4.62868 9.30671C5.01162 9.56201 5.1151 10.0794 4.8598 10.4623C4.60451 10.8453 4.08712 10.9488 3.70418 10.6935L1.20418 9.0268C0.821239 8.7715 0.717761 8.25411 0.973054 7.87117Z" fill="#98A2B3"/>
</svg>
