<svg width="20" height="20" viewBox="0 0 20 20" fill="none" xmlns="http://www.w3.org/2000/svg">
<path fill-rule="evenodd" clip-rule="evenodd" d="M10.6836 6.90828C10.6836 6.44805 11.0567 6.07495 11.5169 6.07495H11.6003C12.0605 6.07495 12.4336 6.44805 12.4336 6.90828C12.4336 7.36852 12.0605 7.74162 11.6003 7.74162H11.5169C11.0567 7.74162 10.6836 7.36852 10.6836 6.90828Z" fill="#101828"/>
<path fill-rule="evenodd" clip-rule="evenodd" d="M2.15515 2.98816C2.46771 2.6756 2.89163 2.5 3.33366 2.5H16.667C17.109 2.5 17.5329 2.67559 17.8455 2.98816C18.1581 3.30072 18.3337 3.72464 18.3337 4.16667V15.8333C18.3337 16.2754 18.1581 16.6993 17.8455 17.0118C17.5329 17.3244 17.109 17.5 16.667 17.5H3.33366C2.89163 17.5 2.46771 17.3244 2.15515 17.0118C1.84259 16.6993 1.66699 16.2754 1.66699 15.8333V4.16667C1.66699 3.72464 1.84259 3.30072 2.15515 2.98816ZM3.33366 13.4527V15.8333H6.56348L10.0647 12.3321L7.25846 9.51411L3.33366 13.4527ZM11.2432 11.1536L7.84914 7.74531C7.6928 7.58831 7.48037 7.50004 7.2588 7.5C7.03723 7.49996 6.82477 7.58816 6.66837 7.74511L3.33366 11.0915V4.16667L16.667 4.16667V11.9132L14.1646 9.41074C13.8391 9.08531 13.3115 9.08531 12.9861 9.41074L11.2432 11.1536ZM16.667 14.2702L13.5753 11.1785L8.9205 15.8333H16.667V14.2702Z" fill="#101828"/>
</svg>
