<svg width="20" height="20" viewBox="0 0 20 20" fill="none" xmlns="http://www.w3.org/2000/svg">
<path fill-rule="evenodd" clip-rule="evenodd" d="M10.4318 1.78732L10 2.50008L9.56823 1.78732C9.83363 1.62656 10.1664 1.62656 10.4318 1.78732ZM10 3.49515C9.84854 3.59831 9.66295 3.72842 9.45212 3.88351C8.85056 4.32599 8.05097 4.96638 7.2545 5.75902C5.6288 7.37691 4.16667 9.47911 4.16667 11.7309C4.16667 12.9978 4.74727 14.2421 5.83127 15.1802C6.91905 16.1215 8.41711 16.6667 10 16.6667C11.5829 16.6667 13.0809 16.1215 14.1687 15.1802C15.2527 14.2421 15.8333 12.9978 15.8333 11.7309C15.8333 9.47911 14.3712 7.37691 12.7455 5.75902C11.949 4.96638 11.1494 4.32599 10.5479 3.88351C10.337 3.72842 10.1515 3.59831 10 3.49515ZM9.56776 1.78761C9.56801 1.78746 9.56823 1.78732 10 2.50008C10.4318 1.78732 10.432 1.78746 10.4322 1.78761L10.4329 1.78799L10.4346 1.78903L10.4398 1.79223L10.4574 1.80304C10.4722 1.81221 10.4932 1.82529 10.5199 1.84218C10.5734 1.87595 10.6499 1.92502 10.7462 1.98869C10.9386 2.11596 11.2105 2.30191 11.5354 2.54094C12.1839 3.01792 13.051 3.71166 13.9212 4.57768C15.6288 6.2771 17.5 8.79028 17.5 11.7309C17.5 13.524 16.6758 15.2146 15.2594 16.4405C13.8467 17.663 11.9533 18.3334 10 18.3334C8.04667 18.3334 6.15334 17.663 4.74064 16.4405C3.32415 15.2146 2.5 13.524 2.5 11.7309C2.5 8.79028 4.3712 6.2771 6.07883 4.57768C6.94903 3.71166 7.8161 3.01792 8.46455 2.54094C8.7895 2.30191 9.0614 2.11596 9.25383 1.98869C9.35009 1.92502 9.42659 1.87595 9.48006 1.84218C9.5068 1.82529 9.52779 1.81221 9.54261 1.80304L9.56019 1.79223L9.56542 1.78903L9.56713 1.78799L9.56776 1.78761Z" fill="#98A2B3"/>
<path fill-rule="evenodd" clip-rule="evenodd" d="M3.33301 10.0001C3.33301 9.53984 3.7061 9.16675 4.16634 9.16675H15.833C16.2932 9.16675 16.6663 9.53984 16.6663 10.0001C16.6663 10.4603 16.2932 10.8334 15.833 10.8334H4.16634C3.7061 10.8334 3.33301 10.4603 3.33301 10.0001Z" fill="#98A2B3"/>
<path fill-rule="evenodd" clip-rule="evenodd" d="M3.33301 13.3333C3.33301 12.8731 3.7061 12.5 4.16634 12.5H15.833C16.2932 12.5 16.6663 12.8731 16.6663 13.3333C16.6663 13.7936 16.2932 14.1667 15.833 14.1667H4.16634C3.7061 14.1667 3.33301 13.7936 3.33301 13.3333Z" fill="#98A2B3"/>
</svg>
