<svg width="24" height="24" viewBox="0 0 24 24" fill="none" xmlns="http://www.w3.org/2000/svg">
<path d="M16.5858 2.00416L13.9474 2C10.9832 2 9.06766 3.9319 9.06766 6.92203V9.19141H6.41486C6.18563 9.19141 6 9.37409 6 9.59943V12.8875C6 13.1128 6.18584 13.2953 6.41486 13.2953H9.06766V21.5922C9.06766 21.8175 9.25329 22 9.48252 22H12.9437C13.1729 22 13.3585 21.8173 13.3585 21.5922V13.2953H16.4603C16.6895 13.2953 16.8751 13.1128 16.8751 12.8875L16.8764 9.59943C16.8764 9.49124 16.8326 9.38762 16.7549 9.31105C16.6772 9.23448 16.5714 9.19141 16.4613 9.19141H13.3585V7.26763C13.3585 6.34298 13.5827 5.87358 14.808 5.87358L16.5853 5.87295C16.8144 5.87295 17 5.69027 17 5.46514V2.41197C17 2.18705 16.8146 2.00458 16.5858 2.00416Z" fill="#4267B2"/>
</svg>
