<svg width="20" height="20" viewBox="0 0 20 20" fill="none" xmlns="http://www.w3.org/2000/svg">
<path fill-rule="evenodd" clip-rule="evenodd" d="M4.16699 1.66675C4.62723 1.66675 5.00033 2.03984 5.00033 2.50008V13.4764C5.34858 13.5995 5.66859 13.7995 5.93476 14.0656C6.4036 14.5345 6.66699 15.1704 6.66699 15.8334C6.66699 16.3279 6.52037 16.8112 6.24567 17.2223C5.97096 17.6335 5.58052 17.9539 5.1237 18.1431C4.66689 18.3323 4.16422 18.3818 3.67927 18.2854C3.19431 18.1889 2.74886 17.9508 2.39923 17.6012C2.04959 17.2516 1.81149 16.8061 1.71503 16.3211C1.61857 15.8362 1.66808 15.3335 1.85729 14.8767C2.04651 14.4199 2.36695 14.0294 2.77807 13.7547C2.95189 13.6386 3.13863 13.5453 3.33366 13.4764V2.50008C3.33366 2.03984 3.70676 1.66675 4.16699 1.66675ZM4.16699 15.0001C4.00218 15.0001 3.84106 15.049 3.70402 15.1405C3.56698 15.2321 3.46017 15.3622 3.39709 15.5145C3.33402 15.6668 3.31752 15.8343 3.34967 15.996C3.38183 16.1576 3.46119 16.3061 3.57774 16.4227C3.69428 16.5392 3.84277 16.6186 4.00442 16.6507C4.16607 16.6829 4.33362 16.6664 4.4859 16.6033C4.63817 16.5402 4.76832 16.4334 4.85988 16.2964C4.95145 16.1594 5.00033 15.9982 5.00033 15.8334C5.00033 15.6124 4.91253 15.4004 4.75625 15.2442C4.59997 15.0879 4.38801 15.0001 4.16699 15.0001ZM8.6114 2.08807C9.02252 1.81337 9.50587 1.66675 10.0003 1.66675C10.6634 1.66675 11.2993 1.93014 11.7681 2.39898C12.2369 2.86782 12.5003 3.50371 12.5003 4.16675C12.5003 4.6612 12.3537 5.14455 12.079 5.55567C11.8043 5.9668 11.4138 6.28723 10.957 6.47645C10.9163 6.49334 10.8751 6.50911 10.8337 6.52377V17.5001C10.8337 17.9603 10.4606 18.3334 10.0003 18.3334C9.54009 18.3334 9.16699 17.9603 9.16699 17.5001V6.52377C8.81688 6.39999 8.49726 6.19922 8.23256 5.93452C7.88293 5.58488 7.64483 5.13943 7.54836 4.65447C7.4519 4.16952 7.50141 3.66685 7.69063 3.21004C7.87985 2.75322 8.20028 2.36278 8.6114 2.08807ZM10.0003 3.33341C9.83551 3.33341 9.67439 3.38229 9.53735 3.47386C9.40031 3.56543 9.2935 3.69557 9.23043 3.84785C9.16735 4.00012 9.15085 4.16767 9.183 4.32932C9.21516 4.49097 9.29453 4.63946 9.41107 4.756C9.52761 4.87255 9.6761 4.95192 9.83775 4.98407C9.89175 4.99481 9.94641 5.00012 10.0009 5.00008C10.1096 5 10.2178 4.97865 10.3192 4.93665C10.4715 4.87358 10.6016 4.76676 10.6932 4.62972C10.7848 4.49268 10.8337 4.33157 10.8337 4.16675C10.8337 3.94573 10.7459 3.73377 10.5896 3.57749C10.4333 3.42121 10.2213 3.33341 10.0003 3.33341ZM15.8337 1.66675C16.2939 1.66675 16.667 2.03984 16.667 2.50008V7.64306C17.0152 7.76619 17.3353 7.96615 17.6014 8.23232C18.0703 8.70116 18.3337 9.33704 18.3337 10.0001C18.3337 10.4945 18.187 10.9779 17.9123 11.389C17.6376 11.8001 17.2472 12.1206 16.7904 12.3098C16.7496 12.3267 16.7085 12.3424 16.667 12.3571V17.5001C16.667 17.9603 16.2939 18.3334 15.8337 18.3334C15.3734 18.3334 15.0003 17.9603 15.0003 17.5001V12.3571C14.6502 12.2333 14.3306 12.0325 14.0659 11.7678C13.7163 11.4182 13.4782 10.9728 13.3817 10.4878C13.2852 10.0029 13.3347 9.50019 13.524 9.04337C13.7132 8.58656 14.0336 8.19611 14.4447 7.92141C14.6186 7.80526 14.8053 7.71201 15.0003 7.64306V2.50008C15.0003 2.03984 15.3734 1.66675 15.8337 1.66675ZM15.8337 9.16675C15.6688 9.16675 15.5077 9.21562 15.3707 9.30719C15.2336 9.39876 15.1268 9.52891 15.0638 9.68118C15.0007 9.83345 14.9842 10.001 15.0163 10.1627C15.0485 10.3243 15.1279 10.4728 15.2444 10.5893C15.3609 10.7059 15.5094 10.7852 15.6711 10.8174C15.7251 10.8281 15.7798 10.8335 15.8343 10.8334C15.943 10.8333 16.0512 10.812 16.1526 10.77C16.3048 10.7069 16.435 10.6001 16.5265 10.4631C16.6181 10.326 16.667 10.1649 16.667 10.0001C16.667 9.77907 16.5792 9.56711 16.4229 9.41083C16.2666 9.25455 16.0547 9.16675 15.8337 9.16675Z" fill="#101828"/>
</svg>
