<svg width="20" height="20" viewBox="0 0 20 20" fill="none" xmlns="http://www.w3.org/2000/svg">
<path fill-rule="evenodd" clip-rule="evenodd" d="M8.33366 3.33341V7.50008C8.33366 7.96032 7.96056 8.33342 7.50033 8.33342H3.33366V11.6667H7.50033C7.96056 11.6667 8.33366 12.0398 8.33366 12.5001V16.6667H11.667V12.5001C11.667 12.0398 12.0401 11.6667 12.5003 11.6667H16.667V8.33342H12.5003C12.0401 8.33342 11.667 7.96032 11.667 7.50008V3.33341H8.33366ZM7.09413 2.09388C7.36762 1.82039 7.73855 1.66675 8.12533 1.66675H11.8753C12.2621 1.66675 12.633 1.82039 12.9065 2.09388C13.18 2.36738 13.3337 2.73831 13.3337 3.12508V6.66675H16.8753C17.2621 6.66675 17.633 6.82039 17.9065 7.09388C18.18 7.36738 18.3337 7.73831 18.3337 8.12508V11.8751C18.3337 12.2619 18.18 12.6328 17.9065 12.9063C17.633 13.1798 17.2621 13.3334 16.8753 13.3334H13.3337V16.8751C13.3337 17.2619 13.18 17.6328 12.9065 17.9063C12.633 18.1798 12.2621 18.3334 11.8753 18.3334H8.12533C7.73855 18.3334 7.36762 18.1798 7.09413 17.9063C6.82064 17.6328 6.66699 17.2619 6.66699 16.8751V13.3334H3.12533C2.73855 13.3334 2.36762 13.1798 2.09413 12.9063C1.82064 12.6328 1.66699 12.2619 1.66699 11.8751V8.12508C1.66699 7.73831 1.82064 7.36737 2.09413 7.09388C2.36762 6.82039 2.73855 6.66675 3.12533 6.66675H6.66699V3.12508C6.66699 2.73831 6.82064 2.36737 7.09413 2.09388Z" fill="#98A2B3"/>
</svg>
