<svg width="24" height="24" viewBox="0 0 24 24" fill="none" xmlns="http://www.w3.org/2000/svg">
<path fill-rule="evenodd" clip-rule="evenodd" d="M11.5937 2.08628C11.8523 1.97124 12.1477 1.97124 12.4063 2.08628L20.82 5.82791C21.1709 5.98565 21.4689 6.24125 21.6782 6.56406C21.8874 6.88687 21.9992 7.26319 22 7.64791L22 7.65L22 21C22 21.5523 21.5523 22 21 22C20.4477 22 20 21.5523 20 21L20 7.65209L12 4.09442L4 7.65209L4 21C4 21.5523 3.55228 22 3 22C2.44772 22 2 21.5523 2 21V7.65L2 7.64791C2.0008 7.26319 2.11255 6.88687 2.32185 6.56406C2.53114 6.24125 2.8291 5.98565 3.18 5.82791L3.18366 5.82627L11.5937 2.08628Z" fill="#98A2B3"/>
<path fill-rule="evenodd" clip-rule="evenodd" d="M9.79207 9.99994H14.1779C14.6289 9.99064 15.0699 10.1341 15.4293 10.4072C15.7927 10.6834 16.0507 11.0756 16.1605 11.5187C16.1606 11.5192 16.1607 11.5198 16.1609 11.5204L16.8253 14.1782C17.0425 14.2766 17.2424 14.4139 17.4142 14.5857C17.7893 14.9608 18 15.4695 18 15.9999V18.9999C18 19.5522 17.5523 19.9999 17 19.9999C17 20.5304 16.7893 21.0391 16.4142 21.4142C16.0391 21.7892 15.5304 21.9999 15 21.9999C14.4696 21.9999 13.9609 21.7892 13.5858 21.4142C13.2107 21.0391 13 20.5304 13 19.9999H11C11 20.5304 10.7893 21.0391 10.4142 21.4142C10.0391 21.7892 9.53043 21.9999 9 21.9999C8.46957 21.9999 7.96086 21.7892 7.58579 21.4142C7.21071 21.0391 7 20.5304 7 19.9999C6.44772 19.9999 6 19.5522 6 18.9999V15.9999C6 15.4695 6.21071 14.9608 6.58579 14.5857C6.75602 14.4155 6.95377 14.2791 7.1686 14.1809L7.80911 11.5204C7.91861 11.0766 8.17681 10.6837 8.54071 10.4072C8.90008 10.1341 9.34112 9.99064 9.79207 9.99994ZM9.26931 13.9999H14.7192L14.2191 11.9995C14.2094 11.9998 14.1997 11.9999 14.19 11.9999H9.78C9.7703 11.9999 9.76059 11.9998 9.75089 11.9995L9.26931 13.9999ZM8 17.9999H16V15.9999H8L8 17.9999Z" fill="#98A2B3"/>
</svg>
