<svg width="25" height="24" viewBox="0 0 25 24" fill="none" xmlns="http://www.w3.org/2000/svg">
<path fill-rule="evenodd" clip-rule="evenodd" d="M22.1201 12.2273C22.1201 11.5182 22.0564 10.8364 21.9382 10.1818H12.52V14.05H17.9019C17.67 15.3 16.9655 16.3591 15.9064 17.0682V19.5773H19.1382C21.0291 17.8364 22.1201 15.2728 22.1201 12.2273Z" fill="#4285F4"/>
<path fill-rule="evenodd" clip-rule="evenodd" d="M12.52 22C15.22 22 17.4837 21.1045 19.1382 19.5773L15.9064 17.0682C15.0109 17.6682 13.8655 18.0227 12.52 18.0227C9.91546 18.0227 7.71091 16.2636 6.92454 13.9H3.58362V16.4909C5.22908 19.7591 8.61091 22 12.52 22Z" fill="#34A853"/>
<path fill-rule="evenodd" clip-rule="evenodd" d="M6.92458 13.8999C6.72458 13.2999 6.61095 12.659 6.61095 11.9999C6.61095 11.3408 6.72458 10.6999 6.92458 10.0999V7.509H3.58366C2.90638 8.85901 2.52002 10.3863 2.52002 11.9999C2.52002 13.6136 2.90638 15.1409 3.58366 16.4909L6.92458 13.8999Z" fill="#FBBC05"/>
<path fill-rule="evenodd" clip-rule="evenodd" d="M16.3428 7.47272L19.211 4.60453C17.4791 2.99088 15.2155 1.99997 12.52 1.99997C8.61091 1.99997 5.22908 4.24089 3.58362 7.50908L6.92454 10.1C7.71091 7.73636 9.91546 5.97726 12.52 5.97726C13.9882 5.97726 15.3064 6.48181 16.3428 7.47272Z" fill="#EA4335"/>
</svg>
