<svg width="20" height="20" viewBox="0 0 20 20" fill="none" xmlns="http://www.w3.org/2000/svg">
<path fill-rule="evenodd" clip-rule="evenodd" d="M5.23928 3.58196C5.24974 3.57134 5.26047 3.56101 5.27146 3.55099C5.43031 3.40583 5.63174 3.33325 5.83317 3.33325C5.83312 3.33325 5.83322 3.33325 5.83317 3.33325H14.1665C14.3875 3.33325 14.5995 3.42105 14.7558 3.57733L17.8498 6.6714C18.1577 6.98184 18.3313 7.40084 18.3332 7.83808L18.3332 7.84158L18.3332 15.8333C18.3332 16.2935 17.9601 16.6666 17.4998 16.6666H2.49984C2.0396 16.6666 1.6665 16.2935 1.6665 15.8333V7.83808C1.66834 7.40084 1.84194 6.98184 2.14984 6.67141L2.15224 6.66899L5.23928 3.58196ZM9.99984 14.9999H16.6665L16.6665 7.84509L13.8213 4.99992H7.84502L9.75576 6.91066C9.91204 7.06694 9.99984 7.2789 9.99984 7.49992V14.9999ZM5.83317 5.3451L8.33317 7.8451V14.9999H3.33317V7.8451L5.83317 5.3451Z" fill="#101828"/>
</svg>
