<svg width="20" height="20" viewBox="0 0 20 20" fill="none" xmlns="http://www.w3.org/2000/svg">
<path fill-rule="evenodd" clip-rule="evenodd" d="M4.37533 5.20841C4.26482 5.20841 4.15884 5.25231 4.0807 5.33045C4.00256 5.40859 3.95866 5.51457 3.95866 5.62508V13.7501C3.95866 14.2103 3.58556 14.5834 3.12533 14.5834C2.66509 14.5834 2.29199 14.2103 2.29199 13.7501V5.62508C2.29199 5.07255 2.51149 4.54264 2.90219 4.15194C3.29289 3.76124 3.82279 3.54175 4.37533 3.54175H15.6253C16.1779 3.54175 16.7078 3.76124 17.0985 4.15194C17.4892 4.54264 17.7087 5.07255 17.7087 5.62508V13.7501C17.7087 14.2103 17.3356 14.5834 16.8753 14.5834C16.4151 14.5834 16.042 14.2103 16.042 13.7501V5.62508C16.042 5.51458 15.9981 5.40859 15.92 5.33045C15.8418 5.25231 15.7358 5.20841 15.6253 5.20841H4.37533Z" fill="#98A2B3"/>
<path fill-rule="evenodd" clip-rule="evenodd" d="M1.04199 13.7501C1.04199 13.2898 1.41509 12.9167 1.87533 12.9167H18.1253C18.5856 12.9167 18.9587 13.2898 18.9587 13.7501V15.0001C18.9587 15.5526 18.7392 16.0825 18.3485 16.4732C17.9578 16.8639 17.4279 17.0834 16.8753 17.0834H3.12533C2.57279 17.0834 2.04289 16.8639 1.65219 16.4732C1.26149 16.0825 1.04199 15.5526 1.04199 15.0001V13.7501ZM2.70866 14.5834V15.0001C2.70866 15.1106 2.75256 15.2166 2.8307 15.2947C2.90884 15.3729 3.01482 15.4167 3.12533 15.4167H16.8753C16.9858 15.4167 17.0918 15.3729 17.17 15.2947C17.2481 15.2166 17.292 15.1106 17.292 15.0001V14.5834H2.70866Z" fill="#98A2B3"/>
<path fill-rule="evenodd" clip-rule="evenodd" d="M7.91699 6.87508C7.91699 6.41484 8.29009 6.04175 8.75033 6.04175H11.2503C11.7106 6.04175 12.0837 6.41484 12.0837 6.87508C12.0837 7.33532 11.7106 7.70841 11.2503 7.70841H8.75033C8.29009 7.70841 7.91699 7.33532 7.91699 6.87508Z" fill="#98A2B3"/>
</svg>
