<svg width="24" height="24" viewBox="0 0 24 24" fill="none" xmlns="http://www.w3.org/2000/svg">
<path d="M3 18V6H5.13833V16.1777H10.3372V18H3Z" fill="#98A2B3"/>
<path d="M12.1931 18V6H16.7118C17.5648 6 18.2738 6.13672 18.8386 6.41016C19.4073 6.67969 19.8319 7.04883 20.1124 7.51758C20.3967 7.98633 20.5389 8.51758 20.5389 9.11133C20.5389 9.59961 20.4467 10.0176 20.2622 10.3652C20.0778 10.709 19.83 10.9883 19.5187 11.2031C19.2075 11.418 18.8598 11.5723 18.4755 11.666V11.7832C18.8943 11.8066 19.2959 11.9375 19.6801 12.1758C20.0682 12.4102 20.3852 12.7422 20.6311 13.1719C20.877 13.6016 21 14.1211 21 14.7305C21 15.3516 20.8521 15.9102 20.5562 16.4063C20.2603 16.8984 19.8146 17.2871 19.219 17.5723C18.6234 17.8574 17.8742 18 16.9712 18H12.1931ZM14.3314 16.1836H16.6311C17.4073 16.1836 17.9664 16.0332 18.3084 15.7324C18.6542 15.4277 18.8271 15.0371 18.8271 14.5605C18.8271 14.2051 18.7406 13.8848 18.5677 13.5996C18.3948 13.3105 18.1489 13.084 17.83 12.9199C17.511 12.752 17.1306 12.668 16.6888 12.668H14.3314V16.1836ZM14.3314 11.1035H16.4467C16.8156 11.1035 17.1479 11.0352 17.4438 10.8984C17.7397 10.7578 17.9721 10.5605 18.1412 10.3066C18.3141 10.0488 18.4006 9.74414 18.4006 9.39258C18.4006 8.92773 18.2392 8.54492 17.9164 8.24414C17.5975 7.94336 17.123 7.79297 16.4928 7.79297H14.3314V11.1035Z" fill="#98A2B3"/>
</svg>
