<svg width="20" height="20" viewBox="0 0 20 20" fill="none" xmlns="http://www.w3.org/2000/svg">
<path fill-rule="evenodd" clip-rule="evenodd" d="M12.8808 0.508715C13.2123 0.678815 13.3906 1.04824 13.3175 1.41354L12.2065 6.96866L16.5429 8.59484C16.8035 8.69253 16.998 8.91381 17.0616 9.18468C17.1252 9.45556 17.0494 9.7403 16.8596 9.94371L8.10955 19.3187C7.85536 19.5911 7.45129 19.6616 7.11984 19.4915C6.7884 19.3214 6.61013 18.952 6.68319 18.5867L7.79421 13.0316L3.45774 11.4054C3.19721 11.3077 3.00264 11.0864 2.93905 10.8155C2.87547 10.5447 2.95128 10.2599 3.14113 10.0565L11.8911 0.681513C12.1453 0.409165 12.5494 0.338616 12.8808 0.508715ZM5.21002 10.2825L9.04294 11.7198C9.42549 11.8633 9.64761 12.2629 9.56749 12.6635L8.89283 16.0368L14.7907 9.71773L10.9577 8.28039C10.5752 8.13693 10.3531 7.7373 10.4332 7.33668L11.1078 3.96339L5.21002 10.2825Z" fill="#98A2B3"/>
</svg>
