<svg width="20" height="20" viewBox="0 0 20 20" fill="none" xmlns="http://www.w3.org/2000/svg">
<path fill-rule="evenodd" clip-rule="evenodd" d="M3.33366 4.58341V15.6251C3.33366 16.0853 2.96056 16.4584 2.50033 16.4584C2.04009 16.4584 1.66699 16.0853 1.66699 15.6251V4.37508C1.66699 3.98831 1.82064 3.61737 2.09413 3.34388C2.36762 3.07039 2.73855 2.91675 3.12533 2.91675H16.8753C17.2621 2.91675 17.633 3.07039 17.9065 3.34388C18.18 3.61738 18.3337 3.98831 18.3337 4.37508V15.6251C18.3337 16.0853 17.9606 16.4584 17.5003 16.4584C17.0401 16.4584 16.667 16.0853 16.667 15.6251V4.58341H3.33366Z" fill="#98A2B3"/>
<path fill-rule="evenodd" clip-rule="evenodd" d="M0.416992 15.6251C0.416992 15.1648 0.790088 14.7917 1.25033 14.7917H18.7503C19.2106 14.7917 19.5837 15.1648 19.5837 15.6251C19.5837 16.0853 19.2106 16.4584 18.7503 16.4584H1.25033C0.790088 16.4584 0.416992 16.0853 0.416992 15.6251Z" fill="#98A2B3"/>
<path fill-rule="evenodd" clip-rule="evenodd" d="M8.54199 13.1251C8.54199 12.6648 8.91509 12.2917 9.37533 12.2917H15.0003C15.4606 12.2917 15.8337 12.6648 15.8337 13.1251V15.6251C15.8337 16.0853 15.4606 16.4584 15.0003 16.4584C14.5401 16.4584 14.167 16.0853 14.167 15.6251V13.9584H10.2087V15.6251C10.2087 16.0853 9.83556 16.4584 9.37533 16.4584C8.91509 16.4584 8.54199 16.0853 8.54199 15.6251V13.1251Z" fill="#98A2B3"/>
<path fill-rule="evenodd" clip-rule="evenodd" d="M4.16699 6.25008C4.16699 5.78984 4.54009 5.41675 5.00033 5.41675H15.0003C15.4606 5.41675 15.8337 5.78984 15.8337 6.25008V10.6251C15.8337 11.0853 15.4606 11.4584 15.0003 11.4584C14.5401 11.4584 14.167 11.0853 14.167 10.6251V7.08341H5.83366V15.6251C5.83366 16.0853 5.46056 16.4584 5.00033 16.4584C4.54009 16.4584 4.16699 16.0853 4.16699 15.6251V6.25008Z" fill="#98A2B3"/>
</svg>
