<svg width="20" height="20" viewBox="0 0 20 20" fill="none" xmlns="http://www.w3.org/2000/svg">
<path fill-rule="evenodd" clip-rule="evenodd" d="M6.55123 2.50002L6.56368 2.5C7.85257 2.50782 9.08655 3.02144 10.0002 3.92975C10.4484 3.47988 10.9805 3.12217 11.5665 2.87697C12.1605 2.62839 12.798 2.50038 13.442 2.50038C14.0859 2.50038 14.7234 2.62839 15.3174 2.87697C15.9108 3.12526 16.4489 3.4889 16.9006 3.94679C17.819 4.86968 18.3346 6.11874 18.3346 7.42082C18.3346 8.72327 17.8187 9.97268 16.8998 10.8957C16.8995 10.8959 16.8993 10.8962 16.8991 10.8964L10.5919 17.2536C10.4354 17.4113 10.2224 17.5 10.0003 17.5C9.77814 17.5 9.56518 17.4113 9.40872 17.2536L3.10073 10.8956C3.10061 10.8955 3.10084 10.8957 3.10073 10.8956C2.41808 10.2082 1.95297 9.33439 1.76426 8.38417C1.57552 7.43379 1.67131 6.44885 2.03965 5.55264C2.40798 4.65644 3.03248 3.8888 3.83499 3.34581C4.63749 2.80282 5.58233 2.50861 6.55123 2.50002ZM16.3086 4.53336L15.7151 5.11829C15.4182 4.817 15.0643 4.57775 14.674 4.41444C14.2838 4.25114 13.865 4.16704 13.442 4.16704C13.0189 4.16704 12.6001 4.25114 12.2099 4.41444C11.8196 4.57775 11.4658 4.817 11.1688 5.11829L11.1615 5.12571C10.9895 5.29588 10.8396 5.48698 10.7154 5.69458C10.5649 5.94605 10.2934 6.09998 10.0003 6.09998C9.70723 6.09998 9.43571 5.94605 9.28522 5.69458C9.16099 5.48698 9.01112 5.29584 8.83915 5.12567L8.83519 5.12175C8.23172 4.51657 7.41424 4.1735 6.5598 4.16668C5.92096 4.17357 5.29819 4.36811 4.76898 4.72619C4.23805 5.08542 3.82488 5.59329 3.58119 6.18621C3.33751 6.77913 3.27414 7.43075 3.399 8.05952C3.52387 8.68828 3.83144 9.26624 4.2832 9.72105L10.0003 15.4835L15.7182 9.72023C16.3265 9.10955 16.668 8.28274 16.668 7.42082C16.668 6.55889 16.3265 5.73208 15.7182 5.1214L16.3086 4.53336Z" fill="#F87304"/>
</svg>
