<svg width="20" height="20" viewBox="0 0 20 20" fill="none" xmlns="http://www.w3.org/2000/svg">
<path fill-rule="evenodd" clip-rule="evenodd" d="M10.0003 3.33341C8.68179 3.33341 7.39286 3.72441 6.29653 4.45695C5.2002 5.18949 4.34572 6.23068 3.84113 7.44886C3.33655 8.66703 3.20453 10.0075 3.46176 11.3007C3.719 12.5939 4.35393 13.7818 5.28628 14.7141C6.21863 15.6465 7.40652 16.2814 8.69973 16.5387C9.99293 16.7959 11.3334 16.6639 12.5516 16.1593C13.7697 15.6547 14.8109 14.8002 15.5435 13.7039C16.276 12.6076 16.667 11.3186 16.667 10.0001C16.667 8.23197 15.9646 6.53628 14.7144 5.28604C13.4641 4.03579 11.7684 3.33341 10.0003 3.33341ZM5.37058 3.07117C6.74099 2.15549 8.35215 1.66675 10.0003 1.66675C12.2105 1.66675 14.3301 2.54472 15.8929 4.10752C17.4557 5.67033 18.3337 7.78994 18.3337 10.0001C18.3337 11.6483 17.8449 13.2594 16.9292 14.6298C16.0136 16.0002 14.7121 17.0683 13.1894 17.6991C11.6666 18.3298 9.99109 18.4948 8.37458 18.1733C6.75807 17.8517 5.27321 17.0581 4.10777 15.8926C2.94234 14.7272 2.14866 13.2423 1.82712 11.6258C1.50558 10.0093 1.6706 8.33377 2.30133 6.81105C2.93206 5.28834 4.00017 3.98685 5.37058 3.07117ZM7.50033 6.66675C7.50033 6.20651 7.87343 5.83342 8.33366 5.83342H11.2503C12.0239 5.83342 12.7657 6.14071 13.3127 6.68769C13.8597 7.23467 14.167 7.97653 14.167 8.75008C14.167 9.52363 13.8597 10.2655 13.3127 10.8125C12.7657 11.3595 12.0239 11.6667 11.2503 11.6667H9.167V13.3334C9.167 13.7937 8.7939 14.1667 8.33366 14.1667C7.87343 14.1667 7.50033 13.7937 7.50033 13.3334V6.66675ZM9.167 10.0001H11.2503C11.5818 10.0001 11.8998 9.86839 12.1342 9.63397C12.3686 9.39955 12.5003 9.0816 12.5003 8.75008C12.5003 8.41856 12.3686 8.10062 12.1342 7.8662C11.8998 7.63178 11.5818 7.50008 11.2503 7.50008H9.167V10.0001Z" fill="#98A2B3"/>
</svg>
