<svg width="20" height="20" viewBox="0 0 20 20" fill="none" xmlns="http://www.w3.org/2000/svg">
<path fill-rule="evenodd" clip-rule="evenodd" d="M9.99956 5.20622C7.40204 5.20622 4.9108 6.2375 3.07329 8.07341C2.57208 8.57528 2.27092 9.24261 2.22619 9.9505C2.18479 10.6057 2.36569 11.2541 2.73703 11.7918L6.18019 10.416L6.61157 8.22193L6.61397 8.21014C6.66598 7.96441 6.78057 7.73628 6.94665 7.54786C7.11253 7.35964 7.32417 7.2174 7.56109 7.1349C9.13112 6.58606 10.8404 6.58303 12.4124 7.12632L12.1402 7.91394L12.4195 7.12881C12.656 7.21293 12.8666 7.35697 13.0307 7.54686C13.1938 7.73555 13.3055 7.9631 13.355 8.2075L13.8157 10.4147L17.2621 11.7918C17.6334 11.2541 17.8143 10.6057 17.7729 9.9505C17.7282 9.24276 17.4272 8.57558 16.9262 8.07374C15.0886 6.23762 12.5972 5.20622 9.99956 5.20622ZM11.7471 8.66129C10.6005 8.29335 9.36672 8.2966 8.2219 8.67073L7.79182 10.8582C7.74257 11.0934 7.63651 11.3129 7.483 11.4978C7.32948 11.6826 7.13311 11.8271 6.91098 11.9187L6.90254 11.9222L3.21109 13.3972C2.91722 13.5174 2.59193 13.538 2.28518 13.4555C1.97716 13.3727 1.70504 13.1907 1.51091 12.9377C0.82963 12.0564 0.492587 10.9571 0.56284 9.84539C0.633144 8.73283 1.10652 7.68403 1.89435 6.89533C4.04442 4.74692 6.96008 3.53955 9.99956 3.53955C13.039 3.53955 15.9541 4.74637 18.1042 6.89477C18.892 7.68348 19.366 8.73283 19.4363 9.84539C19.5065 10.9573 19.1694 12.0567 18.4879 12.938C18.2938 13.1909 18.0218 13.3727 17.7139 13.4555C17.4072 13.538 17.0819 13.5174 16.788 13.3972L13.0905 11.9197C12.8706 11.8298 12.6756 11.6881 12.5222 11.5065C12.3689 11.325 12.2617 11.1091 12.2098 10.8772L12.2072 10.8655L11.7471 8.66129ZM2.83346 11.9234L2.83193 11.9215L2.83346 11.9234Z" fill="#98A2B3"/>
<path fill-rule="evenodd" clip-rule="evenodd" d="M2.29199 15.6251C2.29199 15.1648 2.66509 14.7917 3.12533 14.7917H16.8753C17.3356 14.7917 17.7087 15.1648 17.7087 15.6251C17.7087 16.0853 17.3356 16.4584 16.8753 16.4584H3.12533C2.66509 16.4584 2.29199 16.0853 2.29199 15.6251Z" fill="#98A2B3"/>
</svg>
