<svg width="16" height="16" viewBox="0 0 16 16" fill="none" xmlns="http://www.w3.org/2000/svg">
<path fill-rule="evenodd" clip-rule="evenodd" d="M8.86327 1.52714C8.98818 1.40296 9.15716 1.33325 9.3333 1.33325H13.3333C13.6869 1.33325 14.0261 1.47373 14.2761 1.72378C14.5262 1.97383 14.6666 2.31296 14.6666 2.66659V6.66659C14.6666 6.8425 14.5971 7.01128 14.4732 7.13615L7.63665 14.0261C7.38683 14.2744 7.04888 14.4138 6.69663 14.4138C6.34439 14.4138 6.00645 14.2744 5.75664 14.0261L5.75523 14.0247L1.9819 10.2513L1.9805 10.2499C1.73216 10.0001 1.59277 9.66217 1.59277 9.30992C1.59277 8.95767 1.73216 8.61974 1.9805 8.36992L1.98327 8.36713L8.86327 1.52714ZM9.6083 2.66659L2.92612 9.30993L6.69663 13.0804L13.3333 6.39196V2.66659H9.6083Z" fill="#17A550"/>
<path fill-rule="evenodd" clip-rule="evenodd" d="M10.2998 4.99992C10.2998 4.63173 10.5983 4.33325 10.9665 4.33325H11.0331C11.4013 4.33325 11.6998 4.63173 11.6998 4.99992C11.6998 5.36811 11.4013 5.66658 11.0331 5.66658H10.9665C10.5983 5.66658 10.2998 5.36811 10.2998 4.99992Z" fill="#17A550"/>
</svg>
