<svg width="20" height="20" viewBox="0 0 20 20" fill="none" xmlns="http://www.w3.org/2000/svg">
<path fill-rule="evenodd" clip-rule="evenodd" d="M11.0793 1.90911C11.2355 1.75388 11.4467 1.66675 11.6669 1.66675H16.6669C17.1089 1.66675 17.5328 1.84234 17.8454 2.1549C18.1579 2.46747 18.3335 2.89139 18.3335 3.33341V8.33341C18.3335 8.55331 18.2466 8.76429 18.0917 8.92038L9.54605 17.5328C9.23378 17.8432 8.81135 18.0174 8.37104 18.0174C7.93073 18.0174 7.50831 17.8432 7.19604 17.5328L7.19428 17.531L2.47762 12.8143L2.47587 12.8126C2.16545 12.5003 1.99121 12.0779 1.99121 11.6376C1.99121 11.1973 2.16545 10.7749 2.47587 10.4626L2.47933 10.4591L11.0793 1.90911ZM12.0106 3.33341L3.65789 11.6376L8.37104 16.3507L16.6669 7.99013V3.33341H12.0106Z" fill="white"/>
<path fill-rule="evenodd" clip-rule="evenodd" d="M12.875 6.25008C12.875 5.78984 13.2481 5.41675 13.7083 5.41675H13.7917C14.2519 5.41675 14.625 5.78984 14.625 6.25008C14.625 6.71032 14.2519 7.08342 13.7917 7.08342H13.7083C13.2481 7.08342 12.875 6.71032 12.875 6.25008Z" fill="white"/>
</svg>
