<svg width="20" height="20" viewBox="0 0 20 20" fill="none" xmlns="http://www.w3.org/2000/svg">
<path fill-rule="evenodd" clip-rule="evenodd" d="M9.41042 1.07757C9.73586 0.752137 10.2635 0.752137 10.5889 1.07757L13.9223 4.41091C14.2477 4.73634 14.2477 5.26398 13.9223 5.58942C13.5968 5.91485 13.0692 5.91485 12.7438 5.58942L9.99967 2.84534L7.2556 5.58942C6.93016 5.91485 6.40252 5.91485 6.07709 5.58942C5.75165 5.26398 5.75165 4.73634 6.07709 4.41091L9.41042 1.07757Z" fill="#F87304"/>
<path fill-rule="evenodd" clip-rule="evenodd" d="M3.82116 7.98816C4.13372 7.6756 4.55765 7.5 4.99967 7.5H6.66634C7.12658 7.5 7.49967 7.8731 7.49967 8.33333C7.49967 8.79357 7.12658 9.16667 6.66634 9.16667L4.99967 9.16667L4.99967 16.6667H14.9997V9.16667L13.333 9.16667C12.8728 9.16667 12.4997 8.79357 12.4997 8.33333C12.4997 7.8731 12.8728 7.5 13.333 7.5H14.9997C15.4417 7.5 15.8656 7.67559 16.1782 7.98816C16.4907 8.30072 16.6663 8.72464 16.6663 9.16667V16.6667C16.6663 17.1087 16.4907 17.5326 16.1782 17.8452C15.8656 18.1577 15.4417 18.3333 14.9997 18.3333H4.99967C4.55765 18.3333 4.13372 18.1577 3.82116 17.8452C3.5086 17.5326 3.33301 17.1087 3.33301 16.6667V9.16667C3.33301 8.72464 3.5086 8.30072 3.82116 7.98816Z" fill="#F87304"/>
<path fill-rule="evenodd" clip-rule="evenodd" d="M10.0003 0.833496C10.4606 0.833496 10.8337 1.20659 10.8337 1.66683V12.5002C10.8337 12.9604 10.4606 13.3335 10.0003 13.3335C9.54009 13.3335 9.16699 12.9604 9.16699 12.5002V1.66683C9.16699 1.20659 9.54009 0.833496 10.0003 0.833496Z" fill="#F87304"/>
</svg>
