<svg width="20" height="20" viewBox="0 0 20 20" fill="none" xmlns="http://www.w3.org/2000/svg">
<path fill-rule="evenodd" clip-rule="evenodd" d="M3.33366 4.58341V15.4167H16.667V4.58341H3.33366ZM1.66699 4.37508C1.66699 3.56967 2.31991 2.91675 3.12533 2.91675H16.8753C17.6807 2.91675 18.3337 3.56967 18.3337 4.37508V15.6251C18.3337 16.4305 17.6807 17.0834 16.8753 17.0834H3.12533C2.31991 17.0834 1.66699 16.4305 1.66699 15.6251V4.37508Z" fill="#98A2B3"/>
<path fill-rule="evenodd" clip-rule="evenodd" d="M6.87533 6.04175C7.33556 6.04175 7.70866 6.41484 7.70866 6.87508C7.70866 7.48287 7.9501 8.06576 8.37987 8.49553C8.80964 8.92531 9.39254 9.16675 10.0003 9.16675C10.6081 9.16675 11.191 8.92531 11.6208 8.49553C12.0505 8.06576 12.292 7.48287 12.292 6.87508C12.292 6.41484 12.6651 6.04175 13.1253 6.04175C13.5856 6.04175 13.9587 6.41484 13.9587 6.87508C13.9587 7.9249 13.5416 8.93171 12.7993 9.67405C12.057 10.4164 11.0501 10.8334 10.0003 10.8334C8.95051 10.8334 7.94369 10.4164 7.20136 9.67405C6.45903 8.93171 6.04199 7.9249 6.04199 6.87508C6.04199 6.41484 6.41509 6.04175 6.87533 6.04175Z" fill="#98A2B3"/>
</svg>
