<svg width="20" height="20" viewBox="0 0 20 20" fill="none" xmlns="http://www.w3.org/2000/svg">
<path d="M20 0H0V20H20V0Z" fill="white"/>
<path fill-rule="evenodd" clip-rule="evenodd" d="M12.9597 2.86443C13.9365 2.54595 14.9922 3.04516 15.3658 4.00229C15.761 5.01452 15.2469 6.15377 14.2265 6.52719L10.6676 7.82952L13.925 13.7657L12.4639 14.5675L9.20647 8.6313C8.71558 7.73672 9.13658 6.61502 10.0948 6.26436L13.6537 4.96203C13.7966 4.90973 13.8686 4.75016 13.8133 4.60839C13.7609 4.47433 13.6131 4.40441 13.4763 4.44901L7.77184 6.30876C7.26221 6.47491 7.03972 7.07205 7.31639 7.53117L8.63618 9.72127C9.09601 10.4843 8.87445 11.4741 8.13318 11.9683L3.79559 14.86L2.87109 13.4732L7.20868 10.5815L5.88889 8.39141C5.05887 7.01406 5.72633 5.22263 7.25524 4.72418L12.9597 2.86443Z" fill="#98A2B3"/>
<path fill-rule="evenodd" clip-rule="evenodd" d="M14.167 9.16667C13.7068 9.16667 13.3337 9.53976 13.3337 10C13.3337 10.4602 13.7068 10.8333 14.167 10.8333C14.6272 10.8333 15.0003 10.4602 15.0003 10C15.0003 9.53976 14.6272 9.16667 14.167 9.16667ZM11.667 10C11.667 8.61929 12.7863 7.5 14.167 7.5C15.5477 7.5 16.667 8.61929 16.667 10C16.667 11.3807 15.5477 12.5 14.167 12.5C12.7863 12.5 11.667 11.3807 11.667 10Z" fill="#98A2B3"/>
<path fill-rule="evenodd" clip-rule="evenodd" d="M0.833008 14.1666C0.833008 13.7063 1.2061 13.3333 1.66634 13.3333H18.333C18.7932 13.3333 19.1663 13.7063 19.1663 14.1666C19.1663 14.6268 18.7932 14.9999 18.333 14.9999H1.66634C1.2061 14.9999 0.833008 14.6268 0.833008 14.1666Z" fill="#98A2B3"/>
<path fill-rule="evenodd" clip-rule="evenodd" d="M0.833008 16.6666C0.833008 16.2063 1.2061 15.8333 1.66634 15.8333H18.333C18.7932 15.8333 19.1663 16.2063 19.1663 16.6666C19.1663 17.1268 18.7932 17.4999 18.333 17.4999H1.66634C1.2061 17.4999 0.833008 17.1268 0.833008 16.6666Z" fill="#98A2B3"/>
</svg>
