<svg width="20" height="20" viewBox="0 0 20 20" fill="none" xmlns="http://www.w3.org/2000/svg">
<path fill-rule="evenodd" clip-rule="evenodd" d="M2.60449 10.0001C2.60449 9.53984 2.97759 9.16675 3.43783 9.16675H16.5628C17.0231 9.16675 17.3962 9.53984 17.3962 10.0001C17.3962 10.4603 17.0231 10.8334 16.5628 10.8334H3.43783C2.97759 10.8334 2.60449 10.4603 2.60449 10.0001Z" fill="#98A2B3"/>
<path fill-rule="evenodd" clip-rule="evenodd" d="M2.60449 5.62508C2.60449 5.16484 2.97759 4.79175 3.43783 4.79175H16.5628C17.0231 4.79175 17.3962 5.16484 17.3962 5.62508C17.3962 6.08532 17.0231 6.45841 16.5628 6.45841H3.43783C2.97759 6.45841 2.60449 6.08532 2.60449 5.62508Z" fill="#98A2B3"/>
<path fill-rule="evenodd" clip-rule="evenodd" d="M8.00037 15.5832C8.36856 15.8594 8.44318 16.3817 8.16704 16.7499L6.29204 19.2499C6.0159 19.6181 5.49356 19.6927 5.12537 19.4166C4.75718 19.1404 4.68257 18.6181 4.95871 18.2499L6.83371 15.7499C7.10985 15.3817 7.63218 15.3071 8.00037 15.5832Z" fill="#98A2B3"/>
<path fill-rule="evenodd" clip-rule="evenodd" d="M12.0004 15.5832C12.3686 15.3071 12.8909 15.3817 13.167 15.7499L15.042 18.2499C15.3182 18.6181 15.2436 19.1404 14.8754 19.4166C14.5072 19.6927 13.9848 19.6181 13.7087 19.2499L11.8337 16.7499C11.5576 16.3817 11.6322 15.8594 12.0004 15.5832Z" fill="#98A2B3"/>
<path fill-rule="evenodd" clip-rule="evenodd" d="M5.31283 3.33341C4.73753 3.33341 4.27116 3.79978 4.27116 4.37508V14.3751C4.27116 14.9504 4.73753 15.4167 5.31283 15.4167H14.6878C15.2631 15.4167 15.7295 14.9504 15.7295 14.3751V4.37508C15.7295 3.79978 15.2631 3.33341 14.6878 3.33341H5.31283ZM2.60449 4.37508C2.60449 2.87931 3.81705 1.66675 5.31283 1.66675H14.6878C16.1836 1.66675 17.3962 2.87931 17.3962 4.37508V14.3751C17.3962 15.8709 16.1836 17.0834 14.6878 17.0834H5.31283C3.81705 17.0834 2.60449 15.8709 2.60449 14.3751V4.37508Z" fill="#98A2B3"/>
<path fill-rule="evenodd" clip-rule="evenodd" d="M10.0003 4.79175C10.4606 4.79175 10.8337 5.16484 10.8337 5.62508V10.0001C10.8337 10.4603 10.4606 10.8334 10.0003 10.8334C9.54009 10.8334 9.16699 10.4603 9.16699 10.0001V5.62508C9.16699 5.16484 9.54009 4.79175 10.0003 4.79175Z" fill="#98A2B3"/>
<path d="M6.5625 14.375C7.08027 14.375 7.5 13.9553 7.5 13.4375C7.5 12.9197 7.08027 12.5 6.5625 12.5C6.04473 12.5 5.625 12.9197 5.625 13.4375C5.625 13.9553 6.04473 14.375 6.5625 14.375Z" fill="#98A2B3"/>
<path d="M13.4375 14.375C13.9553 14.375 14.375 13.9553 14.375 13.4375C14.375 12.9197 13.9553 12.5 13.4375 12.5C12.9197 12.5 12.5 12.9197 12.5 13.4375C12.5 13.9553 12.9197 14.375 13.4375 14.375Z" fill="#98A2B3"/>
</svg>
