<svg width="20" height="20" viewBox="0 0 20 20" fill="none" xmlns="http://www.w3.org/2000/svg">
<path fill-rule="evenodd" clip-rule="evenodd" d="M10.0003 6.04175C10.4606 6.04175 10.8337 6.41484 10.8337 6.87508V18.1251C10.8337 18.5853 10.4606 18.9584 10.0003 18.9584C9.54009 18.9584 9.16699 18.5853 9.16699 18.1251V6.87508C9.16699 6.41484 9.54009 6.04175 10.0003 6.04175Z" fill="#98A2B3"/>
<path fill-rule="evenodd" clip-rule="evenodd" d="M5.50418 9.62734C5.71 9.21569 6.21056 9.04884 6.62221 9.25466L10.3722 11.1297C10.7839 11.3355 10.9507 11.836 10.7449 12.2477C10.5391 12.6593 10.0385 12.8262 9.62685 12.6204L5.87685 10.7454C5.4652 10.5396 5.29835 10.039 5.50418 9.62734Z" fill="#98A2B3"/>
<path fill-rule="evenodd" clip-rule="evenodd" d="M14.4949 7.75234C14.7007 8.16399 14.5339 8.66455 14.1222 8.87038L10.3722 10.7454C9.96056 10.9512 9.46 10.7843 9.25418 10.3727C9.04835 9.96105 9.2152 9.46049 9.62685 9.25466L13.3769 7.37966C13.7885 7.17384 14.2891 7.34069 14.4949 7.75234Z" fill="#98A2B3"/>
<path fill-rule="evenodd" clip-rule="evenodd" d="M6.59722 2.07091C7.60537 1.40073 8.78899 1.04321 9.99957 1.04321C11.2101 1.04321 12.3938 1.40073 13.4019 2.07091C14.3886 2.72684 15.1642 3.65367 15.6361 4.73931C16.3406 5.06864 16.9724 5.53568 17.4942 6.11321C18.0368 6.71381 18.4485 7.42076 18.7031 8.1891C18.9577 8.95745 19.0496 9.77036 18.9729 10.5761C18.8963 11.3819 18.6528 12.1629 18.2579 12.8695C17.8631 13.5761 17.3255 14.1927 16.6793 14.6803C16.0332 15.1678 15.2927 15.5155 14.5049 15.7013C13.7171 15.8871 12.8993 15.907 12.1034 15.7595C11.3538 15.6207 10.6391 15.3363 9.99957 14.923C9.36005 15.3363 8.64538 15.6207 7.89577 15.7595C7.09988 15.907 6.28203 15.8871 5.49423 15.7013C4.70643 15.5155 3.96592 15.1678 3.3198 14.6803C2.67368 14.1927 2.13609 13.5761 1.74122 12.8695C1.34636 12.1629 1.10286 11.3819 1.02621 10.5761C0.949567 9.77036 1.04145 8.95745 1.29603 8.1891C1.5506 7.42076 1.96229 6.71381 2.50491 6.11321C3.02669 5.53568 3.65855 5.06864 4.36308 4.73931C4.83491 3.65367 5.61052 2.72684 6.59722 2.07091ZM9.99957 2.70988C9.11728 2.70988 8.25465 2.97044 7.5199 3.45888C6.78514 3.94732 6.211 4.64187 5.86952 5.45539L5.86304 5.47041C5.72183 5.78912 5.47438 6.04893 5.16294 6.20551C5.15188 6.21107 5.14071 6.21638 5.12942 6.22144C4.60181 6.45787 4.12919 6.80151 3.7416 7.23051C3.35402 7.65951 3.05995 8.16448 2.87812 8.7133C2.69628 9.26211 2.63064 9.84276 2.68539 10.4183C2.74014 10.9939 2.91406 11.5517 3.19611 12.0564C3.47816 12.5611 3.86215 13.0016 4.32367 13.3498C4.78518 13.6981 5.31412 13.9464 5.87683 14.0792C6.43955 14.2119 7.02373 14.2261 7.59221 14.1208C8.1607 14.0155 8.70105 13.793 9.1789 13.4675L9.19069 13.4596C9.43097 13.3019 9.71214 13.2179 9.99957 13.2179C10.287 13.2179 10.5682 13.3019 10.8084 13.4596L10.8202 13.4675C11.2981 13.793 11.8384 14.0155 12.4069 14.1208C12.9754 14.2261 13.5596 14.2119 14.1223 14.0792C14.685 13.9464 15.214 13.6981 15.6755 13.3498C16.137 13.0016 16.521 12.5611 16.803 12.0564C17.0851 11.5517 17.259 10.9939 17.3138 10.4183C17.3685 9.84276 17.3029 9.26211 17.121 8.7133C16.9392 8.16448 16.6451 7.65951 16.2575 7.23051C15.87 6.80151 15.3973 6.45787 14.8697 6.22144C14.8584 6.21638 14.8473 6.21107 14.8362 6.20551C14.5248 6.04893 14.2773 5.78912 14.1361 5.47041L14.1296 5.45539C13.7881 4.64187 13.214 3.94732 12.4792 3.45888C11.7445 2.97044 10.8819 2.70988 9.99957 2.70988Z" fill="#98A2B3"/>
</svg>
