<svg width="24" height="24" viewBox="0 0 24 24" fill="none" xmlns="http://www.w3.org/2000/svg">
<path d="M8.68021 10.9401L10.2102 9.4001L9.81021 8.0001H8.00021C8.00021 8.0001 7.59021 10.5401 10.5202 13.4601C13.4502 16.3801 16.0002 16.0001 16.0002 16.0001V14.1901L14.6002 13.7901L13.0602 15.3201M20.8802 13.4601C20.6497 14.8601 20.0915 16.1858 19.2511 17.329C18.4107 18.4722 17.3119 19.4005 16.0444 20.0382C14.7769 20.6758 13.3766 21.0048 11.9578 20.9981C10.5389 20.9915 9.14172 20.6495 7.88021 20.0001L3.00021 21.0001L4.00021 16.1201C3.34757 14.8539 3.00479 13.451 3.00005 12.0265C2.99531 10.6021 3.32876 9.19683 3.97296 7.92636C4.61717 6.6559 5.55374 5.55649 6.70566 4.71854C7.85758 3.88059 9.19195 3.32802 10.599 3.10629C12.0061 2.88456 13.4458 2.99998 14.7996 3.44308C16.1533 3.88617 17.3826 4.64428 18.3863 5.65506C19.39 6.66585 20.1395 7.90044 20.573 9.25731C21.0066 10.6142 21.1118 12.0546 20.8802 13.4601V13.4601Z" stroke="white" stroke-width="1.5" stroke-linecap="round" stroke-linejoin="round"/>
</svg>
