<svg width="26" height="24" viewBox="0 0 26 24" fill="none" xmlns="http://www.w3.org/2000/svg">
<path d="M24.6001 9.04596H23.0001C22.8401 9.04596 22.6801 9.15673 22.6401 9.30441L21.5201 12.369H20.4401L19.3601 10.7075C19.2801 10.5967 19.1601 10.5229 19.0001 10.5229H17.4001V9.41518C17.4001 9.19364 17.2401 9.04596 17.0001 9.04596H14.2V7.56905H15.4C15.64 7.56905 15.8 7.42138 15.8 7.19984V4.98445C15.8 4.76291 15.64 4.61523 15.4 4.61523H8.20001C7.96001 4.61523 7.80003 4.76291 7.80003 4.98445V7.19984C7.80003 7.42138 7.96001 7.56905 8.20001 7.56905H9.40002V9.04596H6.19999C6.07999 9.04596 5.99998 9.08287 5.92001 9.15673C5.84004 9.23059 5.80001 9.30441 5.80001 9.41518V10.5229H3.00002C2.76002 10.5229 2.60003 10.6706 2.60003 10.8921V13.1075H1.80002V11.9998C1.80002 11.7783 1.64003 11.6306 1.40003 11.6306C1.16003 11.6306 1 11.7783 1 11.9998V14.9537C1 15.1752 1.15998 15.3229 1.39999 15.3229C1.63999 15.3229 1.79997 15.1752 1.79997 14.9537V13.846H2.59999V16.7999C2.59999 17.0214 2.75997 17.1691 2.99997 17.1691H5.99998L7.47997 19.2368C7.55998 19.3106 7.67998 19.3845 7.79998 19.3845H19C19.16 19.3845 19.28 19.3106 19.36 19.1629L20.44 17.1691H21.56L22.64 19.1629C22.72 19.3106 22.84 19.3845 23 19.3845H24.6C24.84 19.3845 25 19.2368 25 19.0152V9.41522C25 9.19369 24.8401 9.04596 24.6001 9.04596ZM8.6 5.35367H15V6.83058H13.8H9.8H8.6V5.35367ZM10.2 7.56905H13.4001V9.04596H10.2V7.56905ZM3.4 16.4306V11.2614H5.80001V16.4306H3.4ZM18.7201 18.646H8L6.59998 16.69V10.8921V9.78444H9.8H13.8H16.6V10.8921C16.6 11.1137 16.76 11.2614 17 11.2614H18.76L19.8001 12.8614V16.6521L18.7201 18.646ZM20.6 16.4306V13.1075H21.4V16.4306H20.6ZM24.2 18.646H23.24L22.2 16.7945V12.7396L23.28 9.78444H24.2V18.646Z" fill="#98A2B3" stroke="#98A2B3" stroke-width="0.7"/>
</svg>
