<svg width="120" height="50" viewBox="0 0 120 50" fill="none" xmlns="http://www.w3.org/2000/svg">
<path d="M63.769 30.5209V15.7283C63.769 14.3624 67.2917 14.3624 67.2917 15.7283V16.6384C67.6586 15.9557 69.3452 14.1355 73.2361 14.1353C77.6393 14.135 80.2813 17.5485 80.2813 20.0523V30.5209C80.2813 31.8859 76.9788 31.8859 76.9788 30.5209L76.7587 20.5072C75.2175 15.0453 67.732 16.866 67.2917 20.5072V30.5209C67.2917 32.1135 63.769 32.1135 63.769 30.5209Z" fill="white"/>
<path fill-rule="evenodd" clip-rule="evenodd" d="M21.4154 24.8314H33.7767C33.8109 24.8314 33.8448 24.8244 33.8728 24.8041C34.5546 24.3087 34.3569 20.9094 33.3895 18.6867C31.9979 15.4895 29.4393 14.1346 25.9013 14.1353C23.4457 14.1357 20.3108 15.638 18.6366 18.6867C16.9813 21.701 17.0069 25.2411 18.416 27.7899C19.2964 29.8379 22.4221 31.7907 25.6811 32.1142C28.527 32.3966 32.5972 31.4764 32.9495 29.8379C33.1683 29.2345 33.0826 28.0313 31.0046 28.0174C30.9809 28.0172 30.9575 28.0209 30.935 28.0286C28.9376 28.7094 24.5286 29.5537 22.6018 27.5621C22.048 27.0615 21.0495 25.7248 21.2327 24.9632C21.2528 24.8795 21.332 24.8314 21.4154 24.8314ZM21.5631 21.7924C21.2848 21.7924 21.0572 21.5636 21.0878 21.2871C21.6635 16.0871 30.2199 16.3917 30.722 21.2967C30.75 21.5699 30.5234 21.7924 30.2488 21.7924H21.5631Z" fill="white"/>
<path d="M11.3689 30.2932V8.21814C12.2495 6.17019 14.4512 7.08027 14.6713 8.21814V30.2932C13.5705 32.7968 11.3689 31.2037 11.3689 30.2932Z" fill="white"/>
<path d="M37.3479 30.3742V8.2992C38.2286 6.25125 40.4302 7.16133 40.6503 8.2992V30.3742C39.5495 32.8778 37.3479 31.2848 37.3479 30.3742Z" fill="white"/>
<path fill-rule="evenodd" clip-rule="evenodd" d="M57.6017 15.7277C57.6017 14.7951 59.5587 13.2437 60.6614 15.6814C60.6747 15.7108 60.6819 15.7442 60.6819 15.7767V30.4625C60.6819 30.5002 60.6735 30.5372 60.6542 30.5692C60.0824 31.5184 57.5964 31.8626 57.3794 30.5201C57.2243 29.5602 57.0694 29.2751 56.9911 29.1904C56.9621 29.1591 56.919 29.1676 56.8836 29.1907C51.846 32.477 47.0688 31.3484 45.0536 28.6981C41.1862 23.612 43.6372 16.8649 47.4754 14.8172C49.6773 13.6427 53.0709 14.0867 53.64 14.3092C55.1812 14.9117 55.7935 15.6069 56.5102 16.1666C56.5765 16.2184 56.6464 16.273 56.721 16.3308C57.6016 17.0135 57.6017 16.1828 57.6017 15.7277ZM46.8136 23.1581C47.0338 17.9238 50.5029 17.2904 52.1174 17.2411C56.0605 17.2411 57.3794 20.4272 57.3794 23.1581C57.3794 28.967 51.5966 28.4335 51.2346 28.3944C51.2228 28.3931 51.2124 28.3922 51.2005 28.3913C50.9085 28.3701 46.8136 27.9863 46.8136 23.1581Z" fill="white"/>
<path fill-rule="evenodd" clip-rule="evenodd" d="M86.5318 30.518C82.6233 27.7386 81.4273 19.1772 86.8817 15.4184C89.5085 13.6081 93.8338 13.0026 97.7784 16.351C97.8218 16.3879 97.8503 16.4417 97.8567 16.4995C97.891 16.813 97.9145 17.1205 97.9378 17.4242C98.0788 19.2659 98.2085 20.9612 100.665 22.9395C100.719 22.9831 100.753 23.0497 100.751 23.1205C100.702 25.0287 99.4146 28.6545 97.0897 30.6779C97.0392 30.7219 97.007 30.7869 97.0189 30.854C97.1264 31.4612 98.154 31.8535 99.7542 31.6713C99.8274 31.663 99.8907 31.6172 99.9248 31.5497C100.074 31.2542 100.29 30.8714 100.538 30.4304C101.459 28.7934 102.832 26.3543 102.946 24.6021C102.954 24.4767 103.052 24.3748 103.174 24.3748H106.256C106.378 24.3748 106.477 24.4767 106.471 24.6022C106.361 26.9808 104.624 32.6803 101.85 34.2729C101.736 34.3386 101.692 34.4881 101.756 34.6063C102.751 36.4539 103.835 40.3218 103.835 43.0362C103.835 44.1738 100.841 44.1738 100.752 43.0362C100.532 40.2294 99.2112 34.6155 94.1474 33.4779C90.8075 32.7277 86.8817 33.7059 85.1207 36.4365C84.3868 37.5743 82.919 40.4874 82.919 43.0362C82.919 44.321 79.9376 44.321 79.8367 43.0362C79.6209 40.2867 80.6725 34.1014 86.51 30.9407C86.6663 30.8561 86.6771 30.6214 86.5318 30.518ZM86.4481 22.701C86.4481 19.3681 88.6434 17.4667 91.5055 17.2391C94.3676 17.0116 97.4499 19.0598 97.4499 23.0094C97.4499 26.9589 94.5941 28.3097 91.5119 28.3097C88.4296 28.3097 86.4481 26.0339 86.4481 22.701Z" fill="white"/>
<ellipse cx="104.935" cy="16.8652" rx="5.06375" ry="5.23429" fill="#A3CD3E"/>
<path d="M12.0078 36.818V41H11.4618V36.818H12.0078ZM17.0403 37.652C17.4403 37.652 17.7643 37.774 18.0123 38.018C18.2603 38.258 18.3843 38.606 18.3843 39.062V41H17.8443V39.14C17.8443 38.812 17.7623 38.562 17.5983 38.39C17.4343 38.214 17.2103 38.126 16.9263 38.126C16.6383 38.126 16.4083 38.216 16.2363 38.396C16.0683 38.576 15.9843 38.838 15.9843 39.182V41H15.4383V37.712H15.9843V38.18C16.0923 38.012 16.2383 37.882 16.4223 37.79C16.6103 37.698 16.8163 37.652 17.0403 37.652ZM21.5722 39.344C21.5722 39.008 21.6402 38.714 21.7762 38.462C21.9122 38.206 22.0982 38.008 22.3342 37.868C22.5742 37.728 22.8422 37.658 23.1382 37.658C23.3942 37.658 23.6322 37.718 23.8522 37.838C24.0722 37.954 24.2402 38.108 24.3562 38.3V36.56H24.9082V41H24.3562V40.382C24.2482 40.578 24.0882 40.74 23.8762 40.868C23.6642 40.992 23.4162 41.054 23.1322 41.054C22.8402 41.054 22.5742 40.982 22.3342 40.838C22.0982 40.694 21.9122 40.492 21.7762 40.232C21.6402 39.972 21.5722 39.676 21.5722 39.344ZM24.3562 39.35C24.3562 39.102 24.3062 38.886 24.2062 38.702C24.1062 38.518 23.9702 38.378 23.7982 38.282C23.6302 38.182 23.4442 38.132 23.2402 38.132C23.0362 38.132 22.8502 38.18 22.6822 38.276C22.5142 38.372 22.3802 38.512 22.2802 38.696C22.1802 38.88 22.1302 39.096 22.1302 39.344C22.1302 39.596 22.1802 39.816 22.2802 40.004C22.3802 40.188 22.5142 40.33 22.6822 40.43C22.8502 40.526 23.0362 40.574 23.2402 40.574C23.4442 40.574 23.6302 40.526 23.7982 40.43C23.9702 40.33 24.1062 40.188 24.2062 40.004C24.3062 39.816 24.3562 39.598 24.3562 39.35ZM29.7649 41.054C29.4569 41.054 29.1769 40.984 28.9249 40.844C28.6769 40.704 28.4809 40.506 28.3369 40.25C28.1969 39.99 28.1269 39.69 28.1269 39.35C28.1269 39.014 28.1989 38.718 28.3429 38.462C28.4909 38.202 28.6909 38.004 28.9429 37.868C29.1949 37.728 29.4769 37.658 29.7889 37.658C30.1009 37.658 30.3829 37.728 30.6349 37.868C30.8869 38.004 31.0849 38.2 31.2289 38.456C31.3769 38.712 31.4509 39.01 31.4509 39.35C31.4509 39.69 31.3749 39.99 31.2229 40.25C31.0749 40.506 30.8729 40.704 30.6169 40.844C30.3609 40.984 30.0769 41.054 29.7649 41.054ZM29.7649 40.574C29.9609 40.574 30.1449 40.528 30.3169 40.436C30.4889 40.344 30.6269 40.206 30.7309 40.022C30.8389 39.838 30.8929 39.614 30.8929 39.35C30.8929 39.086 30.8409 38.862 30.7369 38.678C30.6329 38.494 30.4969 38.358 30.3289 38.27C30.1609 38.178 29.9789 38.132 29.7829 38.132C29.5829 38.132 29.3989 38.178 29.2309 38.27C29.0669 38.358 28.9349 38.494 28.8349 38.678C28.7349 38.862 28.6849 39.086 28.6849 39.35C28.6849 39.618 28.7329 39.844 28.8289 40.028C28.9289 40.212 29.0609 40.35 29.2249 40.442C29.3889 40.53 29.5689 40.574 29.7649 40.574ZM36.2708 37.652C36.6708 37.652 36.9948 37.774 37.2428 38.018C37.4908 38.258 37.6148 38.606 37.6148 39.062V41H37.0748V39.14C37.0748 38.812 36.9928 38.562 36.8288 38.39C36.6648 38.214 36.4408 38.126 36.1568 38.126C35.8688 38.126 35.6388 38.216 35.4668 38.396C35.2988 38.576 35.2148 38.838 35.2148 39.182V41H34.6688V37.712H35.2148V38.18C35.3228 38.012 35.4688 37.882 35.6528 37.79C35.8408 37.698 36.0468 37.652 36.2708 37.652ZM44.0067 39.23C44.0067 39.334 44.0007 39.444 43.9887 39.56H41.3607C41.3807 39.884 41.4907 40.138 41.6907 40.322C41.8947 40.502 42.1407 40.592 42.4287 40.592C42.6647 40.592 42.8607 40.538 43.0167 40.43C43.1767 40.318 43.2887 40.17 43.3527 39.986H43.9407C43.8527 40.302 43.6767 40.56 43.4127 40.76C43.1487 40.956 42.8207 41.054 42.4287 41.054C42.1167 41.054 41.8367 40.984 41.5887 40.844C41.3447 40.704 41.1527 40.506 41.0127 40.25C40.8727 39.99 40.8027 39.69 40.8027 39.35C40.8027 39.01 40.8707 38.712 41.0067 38.456C41.1427 38.2 41.3327 38.004 41.5767 37.868C41.8247 37.728 42.1087 37.658 42.4287 37.658C42.7407 37.658 43.0167 37.726 43.2567 37.862C43.4967 37.998 43.6807 38.186 43.8087 38.426C43.9407 38.662 44.0067 38.93 44.0067 39.23ZM43.4427 39.116C43.4427 38.908 43.3967 38.73 43.3047 38.582C43.2127 38.43 43.0867 38.316 42.9267 38.24C42.7707 38.16 42.5967 38.12 42.4047 38.12C42.1287 38.12 41.8927 38.208 41.6967 38.384C41.5047 38.56 41.3947 38.804 41.3667 39.116H43.4427ZM48.3914 41.054C48.1394 41.054 47.9134 41.012 47.7134 40.928C47.5134 40.84 47.3554 40.72 47.2394 40.568C47.1234 40.412 47.0594 40.234 47.0474 40.034H47.6114C47.6274 40.198 47.7034 40.332 47.8394 40.436C47.9794 40.54 48.1614 40.592 48.3854 40.592C48.5934 40.592 48.7574 40.546 48.8774 40.454C48.9974 40.362 49.0574 40.246 49.0574 40.106C49.0574 39.962 48.9934 39.856 48.8654 39.788C48.7374 39.716 48.5394 39.646 48.2714 39.578C48.0274 39.514 47.8274 39.45 47.6714 39.386C47.5194 39.318 47.3874 39.22 47.2754 39.092C47.1674 38.96 47.1134 38.788 47.1134 38.576C47.1134 38.408 47.1634 38.254 47.2634 38.114C47.3634 37.974 47.5054 37.864 47.6894 37.784C47.8734 37.7 48.0834 37.658 48.3194 37.658C48.6834 37.658 48.9774 37.75 49.2014 37.934C49.4254 38.118 49.5454 38.37 49.5614 38.69H49.0154C49.0034 38.518 48.9334 38.38 48.8054 38.276C48.6814 38.172 48.5134 38.12 48.3014 38.12C48.1054 38.12 47.9494 38.162 47.8334 38.246C47.7174 38.33 47.6594 38.44 47.6594 38.576C47.6594 38.684 47.6934 38.774 47.7614 38.846C47.8334 38.914 47.9214 38.97 48.0254 39.014C48.1334 39.054 48.2814 39.1 48.4694 39.152C48.7054 39.216 48.8974 39.28 49.0454 39.344C49.1934 39.404 49.3194 39.496 49.4234 39.62C49.5314 39.744 49.5874 39.906 49.5914 40.106C49.5914 40.286 49.5414 40.448 49.4414 40.592C49.3414 40.736 49.1994 40.85 49.0154 40.934C48.8354 41.014 48.6274 41.054 48.3914 41.054ZM53.1441 37.178C53.0401 37.178 52.9521 37.142 52.8801 37.07C52.8081 36.998 52.7721 36.91 52.7721 36.806C52.7721 36.702 52.8081 36.614 52.8801 36.542C52.9521 36.47 53.0401 36.434 53.1441 36.434C53.2441 36.434 53.3281 36.47 53.3961 36.542C53.4681 36.614 53.5041 36.702 53.5041 36.806C53.5041 36.91 53.4681 36.998 53.3961 37.07C53.3281 37.142 53.2441 37.178 53.1441 37.178ZM53.4081 37.712V41H52.8621V37.712H53.4081ZM56.6347 39.344C56.6347 39.008 56.7027 38.714 56.8387 38.462C56.9747 38.206 57.1607 38.008 57.3967 37.868C57.6367 37.728 57.9027 37.658 58.1947 37.658C58.4827 37.658 58.7327 37.72 58.9447 37.844C59.1567 37.968 59.3147 38.124 59.4187 38.312V37.712H59.9707V41H59.4187V40.388C59.3107 40.58 59.1487 40.74 58.9327 40.868C58.7207 40.992 58.4727 41.054 58.1887 41.054C57.8967 41.054 57.6327 40.982 57.3967 40.838C57.1607 40.694 56.9747 40.492 56.8387 40.232C56.7027 39.972 56.6347 39.676 56.6347 39.344ZM59.4187 39.35C59.4187 39.102 59.3687 38.886 59.2687 38.702C59.1687 38.518 59.0327 38.378 58.8607 38.282C58.6927 38.182 58.5067 38.132 58.3027 38.132C58.0987 38.132 57.9127 38.18 57.7447 38.276C57.5767 38.372 57.4427 38.512 57.3427 38.696C57.2427 38.88 57.1927 39.096 57.1927 39.344C57.1927 39.596 57.2427 39.816 57.3427 40.004C57.4427 40.188 57.5767 40.33 57.7447 40.43C57.9127 40.526 58.0987 40.574 58.3027 40.574C58.5067 40.574 58.6927 40.526 58.8607 40.43C59.0327 40.33 59.1687 40.188 59.2687 40.004C59.3687 39.816 59.4187 39.598 59.4187 39.35Z" fill="white"/>
</svg>
