<svg width="24" height="24" viewBox="0 0 24 24" fill="none" xmlns="http://www.w3.org/2000/svg">
<path fill-rule="evenodd" clip-rule="evenodd" d="M5 11H19C19 14.866 15.866 18 12 18C8.13401 18 5 14.866 5 11ZM21 11V10.8333C21 9.82081 20.1792 9 19.1667 9H4.83333C3.82081 9 3 9.82081 3 10.8333V11C3 15.9706 7.02944 20 12 20C16.9706 20 21 15.9706 21 11Z" fill="#101828"/>
<path fill-rule="evenodd" clip-rule="evenodd" d="M18 16C18.5523 16 19 16.4477 19 17V19C19 19.5523 18.5523 20 18 20C17.4477 20 17 19.5523 17 19V17C17 16.4477 17.4477 16 18 16Z" fill="#101828"/>
<path fill-rule="evenodd" clip-rule="evenodd" d="M6 16C6.55228 16 7 16.4477 7 17V19C7 19.5523 6.55228 20 6 20C5.44772 20 5 19.5523 5 19V17C5 16.4477 5.44772 16 6 16Z" fill="#101828"/>
<path fill-rule="evenodd" clip-rule="evenodd" d="M17 5C16.4477 5 16 5.44772 16 6V6.29167C16 6.84395 15.5523 7.29167 15 7.29167C14.4477 7.29167 14 6.84395 14 6.29167V6C14 4.34315 15.3431 3 17 3C18.6569 3 20 4.34315 20 6V9C20 9.55228 19.5523 10 19 10C18.4477 10 18 9.55228 18 9V6C18 5.44772 17.5523 5 17 5Z" fill="#101828"/>
</svg>
