<svg width="24" height="24" viewBox="0 0 24 24" fill="none" xmlns="http://www.w3.org/2000/svg">
<path fill-rule="evenodd" clip-rule="evenodd" d="M6.16146 11H17.8385C18.3657 11 18.8205 11 19.195 11.0306C19.5904 11.0629 19.9836 11.1342 20.362 11.327C20.9265 11.6146 21.3854 12.0735 21.673 12.638C21.8658 13.0164 21.9371 13.4096 21.9694 13.805C22 14.1795 22 14.6343 22 15.1614V20C22 20.5523 21.5523 21 21 21C20.4477 21 20 20.5523 20 20V15.2C20 14.6234 19.9992 14.2512 19.9761 13.9678C19.9539 13.6962 19.9162 13.5955 19.891 13.546C19.7951 13.3578 19.6422 13.2049 19.454 13.109C19.4045 13.0838 19.3038 13.0461 19.0322 13.0239C18.7488 13.0008 18.3766 13 17.8 13H6.2C5.62345 13 5.25117 13.0008 4.96784 13.0239C4.69617 13.0461 4.59546 13.0838 4.54601 13.109C4.35785 13.2049 4.20487 13.3578 4.109 13.546C4.0838 13.5955 4.04612 13.6962 4.02393 13.9678C4.00078 14.2512 4 14.6234 4 15.2V20C4 20.5523 3.55229 21 3 21C2.44772 21 2 20.5523 2 20L2 15.1615C1.99998 14.6343 1.99997 14.1795 2.03057 13.805C2.06287 13.4096 2.13419 13.0164 2.32698 12.638C2.6146 12.0735 3.07354 11.6146 3.63803 11.327C4.01641 11.1342 4.40963 11.0629 4.80497 11.0306C5.17955 11 5.63431 11 6.16146 11Z" fill="#101828"/>
<path fill-rule="evenodd" clip-rule="evenodd" d="M21 19H3V17H21V19Z" fill="#101828"/>
<path fill-rule="evenodd" clip-rule="evenodd" d="M7.16146 3H16.8385C17.3657 2.99998 17.8205 2.99997 18.195 3.03057C18.5904 3.06287 18.9836 3.13419 19.362 3.32698C19.9265 3.6146 20.3854 4.07354 20.673 4.63803C20.8658 5.01641 20.9371 5.40963 20.9694 5.80497C21 6.17954 21 6.6343 21 7.16144V8C21 8.55229 20.5523 9 20 9C19.4477 9 19 8.55229 19 8V7.2C19 6.62345 18.9992 6.25118 18.9761 5.96784C18.9539 5.69617 18.9162 5.59546 18.891 5.54601C18.7951 5.35785 18.6422 5.20487 18.454 5.109C18.4045 5.0838 18.3038 5.04612 18.0322 5.02393C17.7488 5.00078 17.3766 5 16.8 5H7.2C6.62345 5 6.25117 5.00078 5.96784 5.02393C5.69617 5.04612 5.59546 5.0838 5.54601 5.109C5.35785 5.20487 5.20487 5.35785 5.109 5.54601C5.0838 5.59546 5.04612 5.69617 5.02393 5.96784C5.00078 6.25117 5 6.62345 5 7.2V8C5 8.55229 4.55229 9 4 9C3.44772 9 3 8.55229 3 8L3 7.16146C2.99998 6.63431 2.99997 6.17955 3.03057 5.80497C3.06287 5.40963 3.13419 5.01641 3.32698 4.63803C3.6146 4.07354 4.07354 3.6146 4.63803 3.32698C5.01641 3.13419 5.40963 3.06287 5.80497 3.03057C6.17955 2.99997 6.63431 2.99998 7.16146 3Z" fill="#101828"/>
<path d="M9 7H8C6.89543 7 6 7.89543 6 9H11C11 7.89543 10.1046 7 9 7Z" fill="#101828"/>
<path d="M16 7H15C13.8954 7 13 7.89543 13 9H18C18 7.89543 17.1046 7 16 7Z" fill="#101828"/>
</svg>
