<svg width="24" height="24" viewBox="0 0 24 24" fill="none" xmlns="http://www.w3.org/2000/svg">
<path fill-rule="evenodd" clip-rule="evenodd" d="M11.5937 2.08628C11.8523 1.97124 12.1477 1.97124 12.4063 2.08628L20.82 5.82791C21.1709 5.98565 21.4689 6.24125 21.6782 6.56406C21.8874 6.88687 21.9992 7.26319 22 7.64791L22 7.65L22 21C22 21.5523 21.5523 22 21 22C20.4477 22 20 21.5523 20 21L20 7.65209L12 4.09442L4 7.65209L4 21C4 21.5523 3.55228 22 3 22C2.44772 22 2 21.5523 2 21V7.65L2 7.64791C2.0008 7.26319 2.11255 6.88687 2.32185 6.56406C2.53114 6.24125 2.8291 5.98565 3.18 5.82791L3.18366 5.82627L11.5937 2.08628Z" fill="#101828"/>
<path fill-rule="evenodd" clip-rule="evenodd" d="M9.79207 10.0004H14.1779C14.6289 9.99113 15.0699 10.1346 15.4293 10.4077C15.7927 10.6839 16.0507 11.0761 16.1605 11.5192C16.1606 11.5197 16.1607 11.5203 16.1609 11.5208L16.8253 14.1787C17.0425 14.277 17.2424 14.4144 17.4142 14.5862C17.7893 14.9613 18 15.47 18 16.0004V19.0004C18 19.5527 17.5523 20.0004 17 20.0004C17 20.5309 16.7893 21.0396 16.4142 21.4146C16.0391 21.7897 15.5304 22.0004 15 22.0004C14.4696 22.0004 13.9609 21.7897 13.5858 21.4146C13.2107 21.0396 13 20.5309 13 20.0004H11C11 20.5309 10.7893 21.0396 10.4142 21.4146C10.0391 21.7897 9.53043 22.0004 9 22.0004C8.46957 22.0004 7.96086 21.7897 7.58579 21.4146C7.21071 21.0396 7 20.5309 7 20.0004C6.44772 20.0004 6 19.5527 6 19.0004V16.0004C6 15.47 6.21071 14.9613 6.58579 14.5862C6.75602 14.416 6.95377 14.2796 7.1686 14.1814L7.80911 11.5208C7.91861 11.0771 8.17681 10.6842 8.54071 10.4077C8.90008 10.1346 9.34112 9.99113 9.79207 10.0004ZM9.26931 14.0004H14.7192L14.2191 12C14.2094 12.0003 14.1997 12.0004 14.19 12.0004H9.78C9.7703 12.0004 9.76059 12.0003 9.75089 12L9.26931 14.0004ZM8 18.0004H16V16.0004H8L8 18.0004Z" fill="#101828"/>
</svg>
