<svg width="24" height="24" viewBox="0 0 24 24" fill="none" xmlns="http://www.w3.org/2000/svg">
<path fill-rule="evenodd" clip-rule="evenodd" d="M13.2949 2.29083C13.4823 2.10456 13.7357 2 14 2H20C20.5304 2 21.0391 2.21071 21.4142 2.58579C21.7892 2.96086 22 3.46957 22 4V10C22 10.2639 21.8957 10.517 21.7098 10.7044L11.455 21.0392C11.0802 21.4117 10.5733 21.6208 10.045 21.6208C9.51658 21.6208 9.00968 21.4117 8.63495 21.0392L8.63285 21.0371L2.97285 15.3771L2.97075 15.375C2.59824 15.0003 2.38916 14.4934 2.38916 13.965C2.38916 13.4366 2.59824 12.9297 2.97075 12.555L2.9749 12.5508L13.2949 2.29083ZM14.4125 4L4.38918 13.965L10.045 19.6208L20 9.58806V4H14.4125Z" fill="#101828"/>
<path fill-rule="evenodd" clip-rule="evenodd" d="M15.45 7.5C15.45 6.94772 15.8977 6.5 16.45 6.5H16.5499C17.1022 6.5 17.5499 6.94772 17.5499 7.5C17.5499 8.05228 17.1022 8.5 16.5499 8.5H16.45C15.8977 8.5 15.45 8.05228 15.45 7.5Z" fill="#101828"/>
</svg>
